<?xml version="1.0" standalone="no"?>
<!DOCTYPE svg PUBLIC "-//W3C//DTD SVG 20010904//EN"
 "http://www.w3.org/TR/2001/REC-SVG-20010904/DTD/svg10.dtd">
<svg version="1.0" xmlns="http://www.w3.org/2000/svg"
 width="216.000000pt" height="121.000000pt" viewBox="0 0 216.000000 121.000000"
 preserveAspectRatio="xMidYMid meet">
<metadata>
Created by potrace 1.16, written by Peter Selinger 2001-2019
</metadata>
<g transform="translate(0.000000,121.000000) scale(0.020019,-0.019967)"
fill="#000000" stroke="none">
<path d="M240 6049 c0 -7 9 -9 21 -6 13 4 26 -1 37 -13 8 -11 19 -17 23 -14 5
2 13 -5 19 -16 10 -19 8 -20 -47 -21 -45 -1 -52 -3 -33 -9 l25 -8 -22 -7 c-13
-4 -23 -11 -23 -16 0 -12 77 -11 101 1 16 9 21 7 31 -15 6 -14 15 -25 20 -25
4 0 8 -6 8 -14 0 -7 11 -21 24 -29 21 -14 23 -21 18 -66 -4 -47 -3 -51 17 -51
12 0 21 6 21 15 0 12 20 15 119 15 105 0 120 -2 124 -17 3 -10 5 -1 6 20 1 24
9 47 24 63 20 21 33 25 115 29 l92 5 0 -40 c0 -44 8 -49 33 -22 14 15 17 41
17 135 l0 117 -225 0 -225 0 0 -40 c0 -22 -4 -40 -10 -40 -5 0 -10 18 -10 40
l0 40 -150 0 c-104 0 -150 -3 -150 -11z"/>
<path d="M10053 5901 c-27 -23 -29 -37 -6 -50 17 -9 17 -10 0 -28 -21 -24 -22
-43 -2 -43 20 0 19 -24 -1 -45 -15 -14 -15 -20 -3 -42 11 -21 11 -27 2 -30
-18 -6 -16 -39 3 -68 13 -20 14 -28 5 -39 -13 -16 -17 -62 -26 -299 -4 -125
-8 -162 -21 -174 -9 -10 -13 -25 -10 -37 3 -12 6 -34 7 -51 1 -29 1 -30 9 -5
8 24 8 23 9 -8 1 -26 -4 -34 -24 -42 -14 -5 -25 -14 -25 -20 0 -6 -6 -10 -12
-9 -31 4 -48 -2 -48 -17 0 -8 5 -12 10 -9 6 4 22 -1 36 -10 14 -9 32 -14 39
-11 8 3 17 1 20 -4 4 -6 23 -10 43 -10 21 0 46 -6 57 -14 11 -7 32 -16 48 -20
25 -6 27 -4 27 27 0 30 -29 88 -30 60 0 -21 -20 -15 -20 6 0 15 -8 21 -32 23
-36 3 -35 2 -24 95 5 48 46 89 46 47 0 -8 4 -12 10 -9 6 4 3 18 -7 38 -13 25
-17 54 -16 125 2 82 0 94 -17 105 -21 13 -27 42 -10 52 14 9 12 48 -2 64 -11
10 -8 17 15 36 28 25 36 58 16 71 -6 3 -8 17 -4 31 3 14 1 31 -6 39 -9 11 -8
14 5 14 30 0 20 52 -16 82 l-33 26 27 13 c35 15 46 65 26 117 -16 43 -34 49
-65 23z"/>
<path d="M3463 5396 c-18 -12 -32 -27 -33 -34 0 -9 -11 -12 -32 -10 -35 3 -60
-18 -89 -74 -8 -15 -36 -59 -63 -98 -49 -70 -63 -119 -59 -205 2 -32 3 -104 4
-172 0 -31 -4 -43 -14 -43 -8 0 -20 -6 -26 -14 -10 -12 -8 -15 11 -18 18 -2
22 -8 20 -27 -2 -15 0 -21 7 -17 6 4 11 17 11 29 0 23 13 49 24 48 3 -1 7 -1
9 0 1 0 11 2 21 4 10 2 23 10 27 17 6 9 9 6 10 -12 3 -39 4 -44 17 -67 7 -12
12 -35 12 -51 0 -23 -6 -32 -30 -42 -28 -11 -44 -50 -21 -50 5 0 7 -9 4 -19
-3 -12 -11 -17 -19 -14 -16 6 -17 -1 -5 -44 9 -29 7 -33 -19 -45 -27 -12 -29
-16 -34 -88 -6 -91 -7 -100 -17 -100 -17 0 -27 37 -22 85 5 60 -13 187 -43
290 l-14 50 -47 3 c-26 2 -53 8 -61 14 -10 9 -16 8 -22 -1 -4 -8 -13 -10 -19
-6 -7 4 -19 1 -27 -6 -8 -7 -39 -11 -72 -10 -32 1 -92 -4 -133 -10 -100 -15
-111 -16 -131 -18 -16 -1 -16 -3 2 -21 11 -11 20 -24 20 -29 0 -11 -89 -43
-101 -35 -5 3 -6 -1 -4 -8 9 -22 41 -37 85 -40 33 -1 46 -8 58 -28 9 -14 17
-26 18 -28 1 -2 11 1 23 7 22 12 26 9 35 -36 6 -25 3 -35 -15 -52 -12 -11 -27
-17 -32 -14 -6 4 -2 12 11 21 21 14 29 42 16 55 -4 3 -17 -1 -30 -10 -23 -15
-24 -14 -18 3 5 17 4 17 -13 -2 -18 -21 -41 -21 -56 0 -6 7 -7 4 -3 -6 3 -10
1 -18 -4 -18 -5 0 -11 -8 -14 -17 -3 -11 -4 -8 -3 7 1 17 -4 26 -17 28 -10 2
-16 0 -13 -5 3 -5 -2 -9 -12 -10 -14 -1 -17 4 -13 23 3 17 0 24 -12 24 -9 0
-16 -4 -16 -10 0 -5 5 -10 10 -10 6 0 10 -5 10 -12 0 -6 -3 -8 -7 -5 -3 4 -12
2 -18 -3 -8 -7 -20 -4 -39 11 -39 30 -32 10 13 -36 34 -35 36 -41 22 -52 -24
-18 -28 -16 -40 19 -15 43 -21 32 -11 -20 4 -23 3 -45 -1 -48 -5 -3 -9 -2 -10
3 -6 57 -34 141 -45 131 -3 -4 1 -26 9 -50 9 -23 12 -44 7 -46 -4 -2 -6 -12
-3 -22 3 -11 0 -20 -6 -20 -5 0 -8 7 -5 15 7 18 -7 20 -24 3 -9 -9 -12 -9 -12
0 0 7 -12 12 -26 12 -20 0 -25 -4 -20 -16 3 -9 2 -12 -5 -9 -6 4 -8 13 -5 20
5 15 -17 39 -27 29 -5 -5 -2 21 3 36 1 3 2 8 1 12 0 4 10 2 24 -4 27 -12 31
-23 15 -33 -19 -12 1 -25 36 -22 36 2 44 11 19 21 -8 3 -15 1 -15 -5 0 -6 -5
-7 -11 -3 -8 4 -7 9 2 15 11 7 12 12 1 26 -6 10 -15 25 -19 33 -7 16 -23 30
-36 30 -5 0 -6 -4 -2 -9 3 -5 1 -12 -4 -15 -13 -8 -34 21 -28 38 3 8 1 17 -6
19 -18 6 -4 17 26 19 28 2 35 12 17 23 -5 3 -15 16 -21 27 -10 18 -9 20 9 16
11 -3 26 -2 33 3 10 6 4 9 -17 9 -28 0 -110 -51 -139 -87 -5 -7 -22 -14 -37
-15 -15 -1 -25 -5 -23 -8 2 -4 -7 -19 -21 -35 -21 -24 -27 -27 -34 -15 -6 8
-10 11 -10 5 0 -5 -5 -2 -11 8 -13 22 -8 29 25 31 15 0 26 7 26 15 0 8 -6 11
-16 7 -10 -4 -13 -2 -8 6 5 8 2 9 -9 5 -9 -3 -19 -2 -22 3 -9 15 -22 12 -22
-5 0 -8 4 -12 9 -9 4 3 8 1 8 -5 0 -16 -13 -19 -37 -10 -13 5 -23 15 -23 24 0
8 -4 15 -10 15 -5 0 -7 -7 -4 -15 8 -20 -3 -19 -23 1 -11 11 -26 14 -50 9 -21
-4 -33 -2 -33 5 0 6 4 9 8 6 5 -3 9 1 9 9 0 7 -8 13 -17 12 -11 -1 -15 -7 -12
-19 5 -22 -6 -23 -35 -3 -18 13 -22 13 -26 1 -4 -9 -14 -12 -25 -9 -11 2 -23
0 -26 -6 -4 -6 -2 -11 3 -11 6 0 11 -5 11 -10 0 -6 -8 -5 -20 2 -23 15 -26 28
-6 28 8 0 18 5 21 10 4 6 -3 8 -17 6 -13 -3 -25 -5 -28 -5 -3 -1 -6 -11 -7
-23 -2 -28 -43 -55 -43 -28 0 6 7 10 15 10 18 0 20 31 3 49 -11 11 -9 12 7 8
11 -3 38 -2 60 3 36 7 33 8 -32 9 -63 1 -73 -1 -73 -16 0 -15 2 -16 10 -3 8
13 10 12 10 -3 0 -11 5 -15 11 -11 7 4 10 1 7 -7 -2 -8 -19 -21 -37 -30 -18
-8 -32 -19 -31 -22 4 -20 -9 -24 -42 -12 -21 7 -35 9 -32 4 3 -5 1 -9 -5 -9
-5 0 -13 5 -16 10 -3 6 -11 10 -16 10 -6 0 -7 -5 -3 -12 5 -7 3 -8 -5 -4 -7 5
-10 14 -7 22 7 17 -1 18 -18 2 -11 -11 -11 -15 3 -26 9 -8 3 -6 -14 4 -16 9
-35 25 -42 33 -10 14 -11 12 -9 -11 2 -16 -3 -29 -11 -32 -8 -3 -11 -11 -7
-17 4 -8 3 -9 -5 -5 -7 4 -15 -2 -20 -16 -6 -13 -10 -17 -10 -9 -1 7 -7 11
-15 8 -7 -3 -19 0 -25 6 -8 8 -11 7 -11 -6 0 -9 8 -17 18 -18 19 0 20 0 -65
-35 -24 -10 -43 -22 -43 -28 0 -5 -3 -6 -6 -3 -4 4 -23 -7 -43 -24 -20 -16
-41 -34 -48 -39 -7 -5 -20 -7 -29 -3 -11 4 -15 2 -11 -4 7 -11 -40 -60 -49
-50 -8 8 6 28 16 22 4 -3 14 3 21 12 15 18 15 18 -35 -3 -8 -3 -24 4 -36 16
-17 17 -24 19 -36 9 -26 -21 -13 -61 24 -73 32 -11 32 -11 12 -29 -19 -16 -24
-14 -21 6 1 5 -3 6 -8 3 -5 -4 -12 -2 -16 4 -10 17 -25 11 -18 -7 5 -15 3 -15
-10 2 -13 17 -13 20 1 31 9 7 11 13 5 17 -6 4 -19 -5 -28 -19 -9 -15 -11 -23
-4 -19 8 5 10 4 5 -3 -4 -7 -13 -12 -21 -12 -7 0 -12 -8 -11 -17 2 -11 -9 -25
-26 -35 -15 -10 -28 -25 -28 -33 0 -9 5 -13 10 -10 6 4 7 11 4 17 -4 6 -2 8 4
4 6 -3 13 -2 17 4 3 5 11 10 18 10 6 0 3 -6 -8 -13 -23 -18 -12 -37 18 -30 21
5 21 5 5 -12 -15 -16 -18 -17 -33 -2 -8 9 -22 14 -30 11 -8 -4 -15 -1 -15 6 0
6 -5 8 -11 4 -8 -4 -7 -9 2 -15 10 -6 6 -11 -14 -18 -32 -12 -36 -22 -6 -16
17 3 18 1 10 -9 -7 -8 -21 -12 -31 -9 -11 3 -20 0 -20 -6 0 -5 7 -8 15 -5 8 4
15 1 15 -5 0 -7 -10 -16 -22 -21 -21 -8 -22 -9 -3 -11 14 -1 11 -3 -9 -8 -16
-3 -31 -12 -34 -20 -3 -8 0 -11 7 -7 14 9 14 0 1 -24 -6 -11 -16 -17 -24 -14
-8 3 -16 -3 -19 -15 -4 -16 0 -21 15 -21 10 0 17 -4 13 -10 -3 -5 -12 -7 -19
-4 -7 3 -19 -2 -26 -11 -10 -12 -10 -15 1 -15 10 -1 9 -3 -3 -10 -10 -6 -14
-18 -11 -30 4 -16 2 -19 -13 -13 -13 5 -16 3 -11 -9 3 -9 3 -19 0 -22 -11 -11
-9 -55 2 -49 5 2 0 -4 -13 -14 -24 -20 -26 -58 -3 -72 10 -6 9 -10 -3 -14 -9
-4 -16 -14 -16 -24 0 -15 2 -16 10 -3 7 12 9 10 8 -7 -1 -11 -7 -19 -13 -17
-15 6 -18 -194 -4 -286 6 -41 12 -82 13 -90 4 -24 16 -61 41 -125 13 -33 26
-71 29 -85 8 -37 66 -121 78 -113 7 3 8 1 4 -5 -7 -11 15 -52 41 -80 12 -12
19 -62 9 -62 -28 0 -250 -56 -281 -70 -41 -20 -45 -23 -127 -77 -55 -36 -178
-160 -178 -180 0 -7 -9 -27 -20 -45 -25 -41 -27 -73 -4 -64 9 3 18 6 20 6 2 0
4 14 4 30 0 17 5 30 10 30 6 0 10 9 10 20 0 11 4 20 10 20 5 0 7 -13 4 -30 -4
-16 -4 -36 -1 -45 12 -29 34 -4 52 58 18 63 40 100 91 151 38 37 44 15 14 -46
-13 -25 -24 -71 -27 -109 l-6 -67 27 5 c19 4 26 12 26 28 0 25 31 121 57 175
22 45 92 105 106 91 7 -7 2 -51 -13 -131 -24 -129 -21 -144 21 -138 19 2 25
11 30 43 18 112 45 191 73 214 12 10 21 9 45 -5 29 -17 30 -21 28 -78 -2 -55
0 -61 23 -73 34 -17 44 -4 58 76 13 74 27 96 40 62 l8 -22 27 27 c17 17 27 22
27 13 0 -11 2 -11 10 1 8 13 10 12 10 -2 0 -10 -7 -18 -16 -18 -12 0 -14 -3
-6 -13 7 -8 11 -60 10 -135 -1 -67 2 -125 5 -129 4 -3 20 6 35 20 27 26 28 31
27 115 -2 83 -1 88 19 90 14 1 17 -1 8 -7 -11 -7 -11 -9 0 -13 7 -3 16 -6 20
-7 15 -2 49 -42 58 -67 6 -14 10 -50 10 -80 0 -53 -1 -54 -28 -54 -15 0 -33 5
-40 12 -9 9 -15 9 -24 0 -18 -18 2 -45 36 -47 15 0 32 -8 37 -18 13 -22 38
-22 54 0 18 24 43 9 51 -31 4 -27 11 -36 26 -36 10 0 33 -7 51 -16 22 -12 32
-13 35 -5 6 19 34 42 46 38 6 -2 12 -18 14 -36 3 -26 10 -35 36 -46 33 -14 60
-38 51 -46 -2 -3 -1 -28 4 -56 9 -62 0 -78 -56 -87 -28 -5 -47 -15 -58 -32
-22 -33 -33 -30 -33 10 0 47 -17 73 -52 81 -41 9 -70 -2 -70 -27 0 -11 -8 -22
-19 -25 -11 -3 -21 -17 -25 -34 -5 -27 -9 -30 -43 -28 -21 1 -51 -4 -66 -10
-30 -12 -81 -5 -71 10 3 5 -4 9 -16 9 -20 0 -21 4 -19 100 2 108 -3 120 -51
140 -52 21 -59 11 -62 -92 -3 -89 -4 -93 -25 -90 -12 2 -24 -2 -28 -7 -3 -6
-24 -8 -50 -4 -40 5 -45 3 -53 -18 l-9 -24 -7 23 c-4 12 -13 22 -21 22 -7 0
-16 11 -19 25 -4 14 -11 25 -16 25 -6 0 -24 22 -41 50 -17 27 -35 50 -39 50
-5 0 -12 9 -15 21 -7 22 -104 89 -128 89 -8 0 -20 6 -26 14 -6 8 -26 16 -44
19 -18 3 -54 10 -82 16 -27 5 -78 10 -112 10 l-63 1 0 -121 0 -121 31 6 c17 3
35 6 40 6 5 0 9 7 9 15 0 16 35 55 49 55 5 0 20 -14 32 -31 l22 -32 -24 -18
c-13 -10 -33 -20 -44 -22 -11 -2 -5 -5 14 -6 26 -1 32 -4 27 -17 -3 -9 -6 -19
-6 -24 0 -4 -9 -10 -20 -13 -12 -3 -20 -14 -20 -27 0 -11 -4 -19 -9 -16 -14 9
-61 -52 -55 -69 5 -11 -1 -15 -20 -15 -22 0 -26 -4 -26 -30 0 -16 4 -30 9 -30
22 0 71 23 71 34 0 21 61 86 101 106 21 11 58 20 84 20 49 0 64 23 23 34 -17
4 -20 8 -11 17 6 6 17 8 25 3 7 -5 23 -7 36 -5 14 1 22 -3 22 -12 0 -8 11 -17
25 -19 14 -3 25 -4 25 -3 0 17 -34 63 -44 59 -8 -3 -30 2 -51 10 -43 18 -75
21 -75 6 0 -14 -13 -12 -36 6 -18 15 -18 15 7 10 25 -5 26 -4 27 46 0 30 6 55
14 59 8 6 14 3 16 -6 2 -8 9 -15 17 -15 18 0 45 -44 45 -74 0 -26 14 -36 43
-28 14 3 17 11 13 26 -24 83 -18 93 35 54 28 -21 89 -115 89 -138 0 -18 -18
-11 -25 9 -8 27 -31 16 -44 -21 -6 -16 -15 -27 -21 -23 -5 3 -19 1 -31 -6 -15
-8 -19 -8 -15 0 4 6 3 11 -3 11 -17 0 -19 -24 -4 -53 12 -23 19 -28 36 -22 80
24 99 27 109 17 6 -6 7 -16 2 -23 -4 -7 -8 -36 -10 -64 -2 -49 0 -52 20 -48
48 11 50 13 28 29 -38 27 -17 93 25 80 24 -8 37 -44 22 -63 -8 -9 -8 -22 0
-45 16 -45 1 -54 -111 -62 -55 -3 -95 -11 -99 -18 -5 -8 -42 -13 -111 -14
-103 -1 -227 -18 -261 -36 -14 -7 -17 -23 -17 -89 l0 -80 30 16 c16 8 32 15
35 15 3 0 21 7 41 15 20 8 44 15 53 14 9 -1 5 -4 -9 -9 -24 -8 -24 -8 6 -9 25
-1 33 -6 38 -26 8 -31 1 -45 -23 -45 -9 0 -41 -11 -69 -25 -29 -14 -54 -25
-57 -25 -6 0 -45 -38 -45 -44 0 -3 8 -7 18 -9 16 -4 16 -5 0 -6 -13 -1 -18
-10 -18 -31 0 -16 4 -30 8 -30 25 0 53 -130 34 -154 -6 -6 -10 -87 -11 -180
-2 -117 -7 -182 -16 -210 -20 -57 -20 -146 0 -146 8 0 15 -4 15 -10 0 -15 47
-12 54 3 3 8 8 7 16 -6 6 -9 18 -17 25 -17 16 0 20 -25 6 -34 -5 -3 -36 -7
-70 -8 l-61 -3 0 -182 0 -183 343 0 343 0 -4 41 c-4 39 -4 40 24 37 27 -3 29
-6 27 -41 -2 -33 0 -37 21 -37 14 0 27 6 29 13 4 9 6 9 6 0 1 -7 13 -13 27
-13 25 0 26 3 21 33 -9 59 9 66 33 14 21 -45 24 -47 66 -47 l43 0 -6 33 c-3
17 -9 34 -13 37 -9 7 -33 120 -27 127 3 2 27 5 54 6 47 2 48 2 51 -31 2 -18
-2 -39 -8 -47 -8 -10 -8 -19 -1 -33 6 -11 9 -21 7 -23 -2 -2 -6 -19 -9 -36 -5
-24 -3 -33 7 -33 9 0 16 19 20 58 16 153 23 166 71 144 l24 -11 -33 -96 c-30
-86 -32 -95 -15 -95 11 0 22 13 30 35 7 19 17 35 21 35 4 0 8 11 8 24 0 13 7
26 15 30 9 3 15 18 15 37 l0 31 75 -7 c41 -4 86 -4 100 -1 22 6 24 9 15 26
-10 18 -7 20 29 20 22 0 43 -4 46 -10 3 -6 -5 -10 -19 -10 -14 0 -27 -4 -30
-9 -3 -4 35 -14 85 -22 l91 -13 -29 -20 c-42 -31 -110 -104 -116 -126 -5 -19
1 -20 186 -20 l192 0 23 33 22 32 -22 17 c-19 15 -20 20 -9 27 8 5 20 7 26 5
10 -4 42 -9 83 -13 28 -2 9 -20 -25 -23 -36 -3 -38 -5 -41 -40 l-3 -37 215 -1
c165 0 215 2 219 12 4 10 6 10 6 1 1 -16 341 -19 341 -3 0 5 -6 7 -14 4 -8 -3
-17 -1 -21 5 -3 6 1 14 9 17 9 3 16 12 16 19 0 8 8 11 20 8 14 -4 20 0 20 10
0 24 12 27 66 13 l49 -12 -30 -11 c-26 -10 -27 -12 -7 -12 12 -1 22 -5 22 -10
0 -5 25 -12 55 -16 30 -3 53 -11 50 -16 -4 -5 58 -9 154 -9 89 0 161 4 161 9
0 5 -21 17 -46 28 -43 17 -45 20 -40 50 l5 33 -58 0 c-31 0 -62 5 -68 11 -8 8
-17 8 -31 0 -31 -16 -83 -13 -104 6 -14 13 -21 14 -30 5 -14 -14 -114 -16
-122 -3 -8 12 24 112 42 134 19 21 6 38 -29 39 -35 0 -188 27 -231 40 l-37 11
23 18 c22 17 48 20 62 6 14 -14 21 -6 16 18 -2 15 0 25 7 25 7 0 10 4 7 9 -3
4 -16 8 -28 7 -13 -1 -30 3 -38 10 -8 7 -31 17 -50 22 l-35 9 37 8 c21 4 68 2
105 -4 38 -6 75 -12 83 -12 8 0 22 -3 30 -6 16 -7 55 -12 110 -16 30 -2 35 -5
32 -26 -1 -17 2 -22 13 -17 16 6 21 -18 17 -77 -1 -15 4 -43 12 -62 12 -28 20
-35 43 -35 l29 0 2 92 c2 51 4 143 5 205 1 61 4 114 7 116 3 3 18 3 33 0 24
-5 28 -10 26 -37 -1 -17 -1 -111 0 -208 1 -171 2 -178 21 -178 19 0 20 7 20
154 0 211 7 276 31 276 11 0 19 -7 19 -15 0 -12 8 -14 39 -9 58 9 61 -2 61
-242 0 -226 8 -274 45 -274 34 0 55 -22 62 -64 6 -38 5 -39 -20 -34 -16 3 -31
0 -38 -8 -9 -12 0 -14 55 -14 l66 0 1 33 c0 17 3 26 6 20 7 -18 33 -16 33 2 0
8 -9 15 -21 15 -19 0 -20 5 -19 83 1 45 7 155 13 243 l10 162 31 -10 c17 -5
40 -10 51 -12 11 -2 31 -6 44 -11 16 -5 21 -4 17 4 -10 15 19 19 199 27 88 3
189 8 225 9 36 2 139 6 230 10 91 3 201 8 245 11 44 3 129 6 188 7 101 2 108
1 113 -18 3 -11 1 -32 -5 -45 -9 -24 -10 -24 -10 -2 -1 15 -7 22 -22 22 -18 0
-20 -5 -17 -53 3 -47 5 -52 26 -49 26 4 27 -5 6 -33 -11 -15 -17 -17 -23 -7
-6 9 -38 11 -137 6 -71 -3 -137 -6 -146 -6 -10 1 -18 -3 -18 -8 0 -5 77 -11
172 -12 l173 -3 -2 -45 c-1 -25 -2 -58 -3 -75 0 -26 -2 -28 -13 -14 -18 23
-53 40 -71 33 -17 -7 -29 -35 -32 -79 -2 -16 -6 -51 -10 -77 -5 -39 -4 -49 10
-54 10 -4 16 -18 16 -40 l0 -34 60 0 60 0 1 33 c0 17 2 104 4 191 3 106 8 162
16 166 13 9 66 6 76 -4 3 -3 15 -6 26 -6 11 0 39 -19 62 -43 23 -24 47 -41 54
-39 6 2 23 1 36 -2 20 -5 25 -13 25 -36 0 -32 -19 -40 -39 -16 -15 18 -45 26
-61 16 -17 -10 -4 -60 15 -60 8 0 15 -5 15 -10 0 -6 10 -8 22 -5 43 10 51 -6
49 -99 -2 -81 -1 -86 19 -86 19 0 21 5 18 63 -2 49 0 62 12 62 16 0 33 -72 18
-81 -4 -3 -8 -14 -8 -25 0 -18 9 -19 250 -19 l250 0 0 61 c0 76 -10 94 -65
119 -25 11 -45 25 -45 30 0 11 -67 80 -78 80 -4 0 -34 23 -66 50 -33 27 -62
47 -65 45 -2 -3 -13 2 -23 12 -10 9 -21 13 -24 10 -4 -4 -19 2 -33 12 -14 10
-62 37 -106 61 -44 24 -101 59 -126 77 -64 46 -112 64 -148 57 -44 -9 -83 18
-75 51 4 15 2 25 -4 25 -6 0 -12 -15 -14 -32 -3 -32 -5 -33 -58 -40 -30 -3
-136 -6 -235 -7 -99 -1 -299 -6 -445 -11 -146 -6 -294 -11 -330 -13 l-65 -2
-3 35 c-3 37 -22 53 -96 80 l-29 11 37 25 c35 24 42 50 10 37 -10 -4 -32 12
-64 45 -50 52 -65 58 -160 66 -25 2 -56 8 -70 13 -62 25 -101 33 -152 31 -67
-3 -118 17 -118 44 0 17 5 20 30 15 16 -4 32 -2 35 3 7 11 -25 64 -33 56 -3
-3 1 -12 7 -20 9 -11 9 -16 0 -21 -19 -12 -27 15 -16 51 9 29 14 33 31 27 25
-8 40 -8 86 0 25 4 43 0 67 -14 18 -11 37 -17 43 -14 6 4 16 -6 22 -23 7 -17
21 -33 32 -37 21 -6 21 -6 1 -14 -11 -5 -25 -6 -32 -4 -7 3 -10 -3 -6 -16 6
-23 24 -27 53 -11 15 8 21 6 29 -7 17 -28 33 4 28 54 -4 39 -3 42 18 41 15 -2
21 -7 18 -19 -5 -17 31 -49 55 -49 22 0 10 44 -15 55 -12 5 -25 21 -28 36 -3
14 -19 39 -36 55 -24 23 -37 28 -77 26 -62 -2 -80 -6 -94 -20 -19 -19 -102
-15 -125 6 -19 15 -21 29 -21 112 0 85 -2 100 -27 143 -23 40 -24 46 -8 41 11
-4 6 4 -13 22 -40 37 -62 101 -63 182 -1 34 -6 70 -11 80 -18 32 -42 107 -49
157 -11 73 0 219 18 253 10 19 -1 78 -29 147 -6 17 -11 31 -11 33 6 19 -3 21
-15 3 -17 -23 -17 -23 -168 -17 -83 4 -180 10 -216 13 -36 3 -93 6 -127 7 -48
1 -59 4 -51 13 6 7 17 13 24 13 8 0 14 5 14 12 0 6 3 9 6 5 5 -5 27 10 63 43
9 8 35 24 59 34 23 10 42 23 42 28 0 4 7 8 16 8 9 0 18 9 21 20 3 11 9 20 13
20 4 0 19 17 33 39 20 30 23 41 14 52 -10 11 -9 11 4 1 21 -15 69 3 69 26 0 8
6 12 14 9 10 -4 13 -1 10 7 -3 7 2 19 11 26 18 15 20 34 2 27 -17 -6 -34 15
-31 37 5 33 26 76 35 70 5 -3 2 -12 -6 -20 -8 -9 -12 -20 -9 -26 4 -6 10 -6
17 1 18 18 28 12 17 -10 -7 -11 -9 -23 -6 -27 3 -3 6 0 6 7 0 7 5 9 12 5 7 -5
8 -3 3 5 -4 7 3 23 16 38 13 15 17 23 9 19 -9 -5 -8 -2 2 7 20 16 14 28 -10
19 -15 -5 -15 -4 -3 11 12 15 12 17 -4 11 -13 -5 -16 -4 -11 4 10 16 44 15 48
0 2 -8 16 0 37 20 30 29 31 32 10 29 -13 -2 -25 -9 -27 -15 -2 -7 -12 -12 -22
-12 -16 0 -15 4 8 28 15 15 30 27 34 25 4 -2 5 5 3 16 -3 15 1 19 17 16 16 -3
19 -2 10 7 -8 8 -6 17 8 35 18 23 17 63 -2 63 -5 0 -4 10 3 21 8 15 8 19 0 15
-6 -4 -11 -2 -11 5 0 10 -3 10 -11 2 -12 -12 -3 -53 12 -53 5 0 0 -9 -11 -20
-21 -21 -28 -46 -8 -34 7 4 8 3 4 -5 -4 -6 -12 -9 -17 -6 -9 6 -13 -7 -10 -37
1 -10 -3 -18 -9 -18 -6 0 -9 -4 -6 -8 3 -5 -1 -9 -9 -9 -7 0 -13 8 -12 18 1
10 5 17 10 16 5 -1 11 6 12 16 4 20 -11 23 -19 5 -2 -7 -3 -2 -2 12 2 17 10
26 24 28 12 2 22 8 22 14 0 5 -7 8 -15 4 -22 -8 -18 3 8 25 20 17 20 19 2 13
-15 -4 -17 -3 -6 4 9 7 12 19 7 38 -5 21 -4 25 4 14 5 -8 10 -10 10 -4 0 6 -3
14 -7 18 -10 10 -11 66 0 59 5 -3 6 3 3 15 -4 11 -2 23 3 26 5 4 8 16 5 29 -9
39 -12 70 -19 167 -3 52 -13 119 -21 147 -9 29 -13 57 -9 63 3 5 2 10 -3 10
-5 0 -12 9 -15 20 -3 11 -1 18 3 15 21 -13 3 39 -17 52 -13 9 -23 20 -23 27 0
6 5 4 11 -4 8 -12 9 -11 6 5 -2 11 -8 19 -13 18 -6 -1 -18 13 -27 32 -15 32
-15 35 0 44 14 8 15 12 4 25 -7 9 -18 16 -23 16 -6 0 -4 -7 3 -17 12 -14 12
-16 -1 -11 -8 2 -15 18 -16 37 -1 18 -4 35 -8 38 -3 3 -1 12 5 20 9 10 8 13
-5 13 -18 0 -21 -22 -5 -53 9 -19 8 -19 -9 2 -11 14 -18 31 -15 38 3 8 -2 13
-13 14 -17 0 -17 1 1 8 11 5 23 6 28 4 4 -2 6 -1 5 4 -1 4 3 19 10 33 12 22
11 23 -1 7 -17 -20 -51 -12 -43 10 4 8 1 11 -5 8 -6 -4 -8 -13 -6 -19 10 -26
-9 -37 -28 -16 -10 11 -13 20 -7 20 7 0 12 -5 12 -12 0 -6 3 -8 7 -5 3 4 -7
19 -22 34 -20 20 -26 22 -22 10 4 -11 3 -16 -3 -12 -6 3 -10 10 -10 15 0 16
44 51 57 46 7 -3 15 -1 18 4 10 17 21 11 36 -17 8 -16 24 -36 37 -46 34 -28
46 -55 32 -73 -7 -7 -17 -11 -23 -7 -6 3 -7 1 -3 -5 4 -7 2 -12 -3 -12 -6 0
-11 -5 -11 -11 0 -5 4 -8 9 -5 5 4 11 0 14 -6 6 -18 20 -2 22 25 1 12 6 21 11
19 5 -2 8 -14 6 -27 -4 -32 16 -68 34 -61 8 3 13 2 10 -3 -3 -5 3 -19 14 -31
11 -13 20 -31 20 -41 0 -10 6 -22 13 -26 21 -13 28 -41 11 -47 -9 -3 -12 -11
-8 -17 5 -8 9 -8 14 1 6 9 11 7 19 -8 6 -12 10 -25 10 -29 -1 -4 1 -16 5 -25
6 -13 13 -15 25 -8 12 6 27 4 47 -6 56 -29 53 -35 -20 -46 -20 -3 -22 -11 -28
-125 -2 -33 0 -59 3 -57 10 6 19 -23 19 -62 0 -37 13 -43 40 -19 10 9 39 15
75 16 33 0 89 5 125 10 36 4 69 4 75 -1 6 -5 31 -10 55 -12 42 -3 45 -5 46
-33 1 -16 -3 -36 -8 -42 -12 -15 -2 -60 17 -80 8 -8 15 -28 15 -44 0 -16 4
-29 8 -29 5 0 13 -16 19 -35 12 -39 8 -47 -7 -12 -7 16 -8 7 -4 -33 3 -30 11
-59 16 -65 7 -7 9 2 5 29 -4 22 -3 35 2 30 13 -15 22 -86 9 -78 -6 4 -9 1 -6
-7 3 -8 11 -14 18 -14 7 0 18 -19 24 -42 7 -28 29 -61 63 -98 l53 -55 21 21
c17 17 28 19 62 14 50 -9 59 -13 52 -26 -24 -38 131 61 218 140 31 28 48 36
77 36 21 0 37 3 34 6 -6 11 30 17 51 8 18 -7 17 -8 -5 -8 -20 -1 -22 -3 -10
-11 12 -8 10 -10 -10 -11 -18 -1 -20 -3 -7 -6 17 -4 17 -6 2 -31 -16 -27 -16
-27 2 -5 10 12 36 45 57 73 l40 51 110 -108 c60 -59 104 -101 98 -92 -7 9 -52
57 -101 106 -71 71 -87 93 -78 103 9 10 9 11 -2 5 -9 -5 -12 -4 -7 3 3 6 2 13
-4 17 -5 3 -10 1 -10 -4 0 -6 -4 -11 -9 -11 -6 0 -8 9 -6 20 5 25 -3 26 -13 1
-6 -16 -10 -17 -42 -4 -30 11 -31 12 -6 8 30 -6 46 6 46 35 0 12 -3 12 -16 -2
-15 -15 -18 -14 -40 5 -29 25 -32 42 -4 25 15 -10 22 -10 32 0 18 18 -6 32
-54 32 -41 0 -56 14 -38 35 16 19 8 19 -36 0 -26 -11 -41 -12 -55 -5 -24 13
-24 15 2 51 26 37 17 37 -31 -2 -21 -17 -44 -29 -52 -27 -7 3 -21 -6 -31 -19
-26 -32 -47 -30 -47 6 0 19 8 35 21 45 15 10 19 20 14 36 -5 15 -1 28 14 44
19 20 20 24 6 36 -8 7 -15 18 -15 25 0 22 -39 25 -45 4 -4 -10 -4 -23 0 -28 3
-5 0 -13 -6 -17 -8 -4 -9 -3 -5 4 4 7 2 12 -3 12 -6 0 -11 9 -11 21 0 11 -4
28 -10 38 -5 10 -12 60 -14 110 -3 51 -8 96 -11 102 -11 16 -25 10 -25 -11 0
-14 -6 -20 -22 -19 -19 1 -20 2 -4 6 14 4 17 11 12 35 -4 22 -2 29 7 25 8 -3
13 9 14 40 1 25 6 50 11 56 6 7 6 36 2 67 -4 30 -6 64 -4 74 5 27 -14 102 -40
161 -20 43 -34 85 -37 112 -1 5 -10 19 -20 32 -29 36 -25 61 9 61 15 0 33 -5
39 -11 19 -19 82 -18 106 2 12 10 16 18 10 19 -21 0 -15 14 10 25 32 14 36 70
6 101 -23 24 -10 34 20 15 22 -14 49 -1 60 29 9 26 13 28 45 23 34 -5 36 -4
34 21 -2 25 -21 35 -32 17 -8 -12 -75 21 -76 37 0 7 12 12 28 12 19 0 29 5 29
15 0 8 -9 15 -19 15 -19 0 -24 15 -8 25 6 3 10 16 10 27 0 12 3 19 6 15 3 -3
17 -2 29 3 20 8 25 5 31 -13 5 -12 7 -28 5 -36 -1 -7 1 -25 5 -40 6 -21 9 -12
14 41 5 53 11 71 29 85 14 11 24 32 25 50 2 17 10 39 19 48 10 9 17 20 17 25
0 4 19 12 43 18 55 14 102 61 92 93 -4 12 -8 42 -10 66 -2 46 -15 73 -15 33 0
-34 -15 -14 -35 48 -9 28 -20 52 -25 52 -5 0 -34 22 -66 50 -31 27 -61 47 -66
44 -5 -3 -15 1 -21 9 -7 9 -25 17 -42 19 -20 2 -29 8 -28 18 2 10 -6 16 -22
16 -16 1 -23 -2 -18 -10 3 -6 -4 0 -17 12 -16 17 -25 21 -30 12 -10 -16 -47
20 -55 52 -5 19 -14 24 -47 26 -23 1 -47 7 -54 13 -6 5 -18 7 -27 4 -8 -4 -22
3 -33 17 -28 35 -36 37 -71 14z m18 -578 c3 -27 8 -54 14 -73 3 -11 0 -28 -7
-37 -14 -19 -94 -56 -83 -39 3 6 -5 16 -19 23 -14 6 -26 14 -26 18 0 4 -10 10
-22 13 -12 4 -19 9 -16 12 3 4 20 -1 38 -10 17 -9 37 -14 43 -12 7 2 -4 11
-25 20 -40 17 -83 55 -73 65 3 4 9 1 13 -5 4 -6 21 -14 39 -17 25 -6 39 -2 65
16 18 13 35 26 36 31 6 12 22 8 23 -5z m-1995 -476 c-2 -4 7 -13 21 -19 20
-10 22 -9 13 1 -8 10 -7 15 4 19 8 3 16 -2 19 -14 3 -10 11 -19 19 -19 10 0 9
3 -2 10 -13 9 -13 11 0 19 10 7 20 5 31 -5 15 -13 17 -13 23 3 6 15 8 15 16 3
6 -8 10 -11 10 -6 0 5 7 3 16 -5 9 -7 18 -9 22 -3 10 13 52 16 52 4 0 -6 9
-19 20 -30 l21 -21 34 27 c19 14 35 21 35 15 0 -6 -5 -11 -11 -11 -5 0 -7 -5
-3 -12 4 -6 3 -8 -3 -5 -6 4 -10 -1 -9 -11 0 -9 -5 -16 -12 -14 -8 1 -11 -2
-7 -8 4 -6 13 -9 21 -6 12 5 12 1 -1 -23 -13 -27 -13 -29 5 -34 11 -3 20 -1
20 4 0 5 -5 9 -11 9 -6 0 -4 9 5 22 11 15 12 25 5 34 -7 8 -7 14 1 19 5 3 10
2 10 -4 0 -6 6 -8 13 -5 8 3 14 -2 14 -10 0 -8 -4 -13 -8 -10 -4 2 -11 -1 -15
-7 -4 -7 3 -20 17 -32 13 -10 23 -21 22 -23 -2 -2 -3 -10 -2 -16 0 -10 2 -10
6 0 5 13 23 7 23 -9 0 -6 -5 -7 -11 -3 -7 4 -10 1 -7 -7 2 -7 19 -13 38 -14
28 0 35 4 41 25 l7 25 1 -26 c1 -21 6 -26 25 -26 16 0 23 4 19 13 -4 10 2 11
26 4 17 -5 31 -6 31 -3 0 4 3 3 7 0 3 -4 -2 -14 -13 -23 -18 -14 -18 -15 4 -4
13 6 30 9 38 6 8 -3 14 1 14 9 0 8 -5 15 -11 15 -6 0 -9 5 -7 11 5 14 23 12
23 -2 0 -6 8 -16 17 -23 10 -7 15 -16 11 -19 -3 -4 -1 -7 6 -7 7 0 9 -5 5 -12
-6 -10 -4 -10 7 -1 10 11 18 8 40 -13 24 -23 28 -24 42 -10 13 14 16 14 21 1
3 -8 0 -15 -7 -16 -9 0 -9 -2 0 -5 7 -3 9 -13 6 -22 -4 -15 -3 -15 6 -2 10 13
12 13 20 0 5 -8 7 -19 4 -25 -4 -5 -3 -7 2 -3 4 4 14 3 22 -4 7 -6 16 -8 20
-4 3 3 2 6 -4 6 -6 0 -8 12 -5 26 4 22 2 25 -19 22 -20 -2 -24 2 -25 23 -1 16
4 26 13 26 9 0 10 -4 3 -11 -5 -5 -10 -17 -10 -25 0 -11 4 -10 16 5 8 10 12
13 8 5 -5 -10 -3 -13 9 -8 9 3 21 -1 29 -11 9 -11 10 -14 1 -8 -15 8 -16 2 -7
-42 4 -21 11 -29 20 -25 8 3 12 9 9 13 -3 5 0 12 6 16 9 5 10 0 7 -14 -4 -12
-2 -22 3 -22 4 0 6 -6 3 -14 -3 -8 0 -17 5 -21 6 -3 9 -11 5 -16 -3 -5 -1 -15
4 -22 6 -7 9 -29 8 -50 -3 -34 -1 -37 18 -31 11 4 26 7 33 7 7 0 10 4 7 8 -2
4 4 12 13 18 16 9 16 10 2 11 -9 0 -19 -7 -23 -15 -3 -8 -12 -15 -21 -15 -21
0 -14 64 9 68 10 2 16 -3 17 -15 0 -11 3 -13 6 -5 4 10 8 9 18 -5 8 -11 10
-22 5 -29 -6 -7 3 -15 25 -23 25 -9 32 -16 28 -28 -4 -9 1 -21 12 -29 10 -8
16 -17 12 -20 -4 -4 -15 -1 -24 7 -17 13 -17 12 -2 -6 23 -28 28 -47 18 -67
-7 -13 -5 -16 10 -13 11 2 27 -2 37 -10 16 -12 16 -12 -8 -10 -24 3 -26 1 -15
-16 6 -10 15 -19 20 -19 4 0 5 -6 1 -12 -5 -9 -2 -8 9 1 15 12 17 12 11 -3 -4
-9 0 -18 9 -22 16 -6 38 -55 36 -83 0 -12 -3 -11 -9 4 -6 15 -9 16 -9 4 -1 -9
2 -19 6 -23 12 -11 10 -44 -2 -40 -6 3 -12 -2 -12 -11 0 -9 6 -14 14 -11 9 4
9 -1 -3 -19 -9 -14 -12 -25 -6 -25 5 0 13 8 18 18 6 14 8 11 13 -13 5 -21 2
-34 -9 -43 -13 -12 -13 -13 2 -8 12 3 15 1 11 -9 -3 -8 -9 -12 -15 -9 -5 3
-12 -3 -15 -15 -3 -12 -10 -21 -17 -21 -7 0 -6 -4 2 -9 8 -4 13 -11 13 -15 -3
-24 0 -27 16 -15 15 13 15 12 3 -8 -9 -13 -21 -20 -34 -17 -20 3 -20 2 -3 -10
15 -12 15 -15 3 -25 -8 -7 -12 -19 -9 -27 4 -10 0 -12 -13 -8 -18 6 -18 6 -3
-11 14 -14 21 -15 39 -5 21 11 21 12 3 26 -17 14 -16 14 4 4 37 -17 5 -58 -36
-45 -12 3 -17 -1 -18 -15 -1 -16 3 -20 16 -15 11 3 25 -3 36 -15 16 -18 17
-20 2 -14 -9 3 -17 2 -17 -3 0 -5 -11 -9 -24 -9 -14 0 -24 2 -24 6 1 15 -3 21
-13 15 -7 -5 -4 -15 6 -32 10 -14 12 -23 7 -19 -6 3 -13 0 -15 -6 -3 -7 -6 -4
-6 8 -1 21 -39 69 -48 60 -9 -9 6 -38 17 -31 9 6 11 1 14 -35 1 -8 -5 -21 -14
-28 -8 -7 -10 -11 -5 -10 6 2 10 -1 10 -7 0 -5 -9 -10 -20 -10 -12 0 -34 -8
-49 -19 -27 -17 -29 -17 -22 -1 6 16 4 16 -11 4 -10 -8 -24 -21 -31 -29 -12
-13 -13 -13 -8 3 3 9 1 17 -5 17 -6 0 -7 5 -4 10 4 6 10 8 15 5 5 -3 11 -1 15
4 3 6 -6 8 -21 5 -15 -3 -23 -1 -20 5 4 5 1 13 -5 17 -8 4 -9 3 -5 -4 4 -7 2
-12 -4 -12 -6 0 -9 -4 -5 -10 3 -5 0 -18 -7 -29 -12 -20 -13 -20 -26 2 -8 13
-11 15 -8 5 6 -19 -9 -25 -19 -8 -9 15 15 42 31 36 16 -6 28 27 19 54 -7 22
-25 26 -43 8 -8 -8 -8 -17 -1 -30 11 -21 3 -42 -13 -32 -7 5 -8 2 -3 -6 6 -9
4 -11 -5 -5 -10 6 -9 11 6 23 16 12 16 14 2 9 -10 -3 -20 -2 -23 4 -4 5 -10 7
-15 4 -12 -8 -41 25 -34 37 4 7 2 8 -4 4 -6 -4 -9 -13 -5 -22 5 -15 43 -40 54
-36 4 1 4 -8 1 -20 -5 -21 -6 -21 -12 -3 -7 19 -7 19 -17 0 -6 -11 -8 -27 -6
-35 3 -10 0 -9 -7 3 -6 9 -16 17 -21 17 -6 0 -8 -4 -4 -9 3 -5 1 -12 -4 -15
-5 -4 -12 -2 -15 3 -4 5 -2 12 4 16 6 4 8 11 5 16 -4 5 -2 9 4 9 5 0 13 -5 17
-11 4 -8 9 -7 14 2 5 7 0 23 -11 38 -16 23 -17 31 -7 64 6 20 15 37 20 37 5 0
7 -3 5 -7 -3 -5 7 -17 22 -27 l26 -20 -19 22 c-11 12 -16 22 -11 22 4 0 2 7
-5 15 -7 9 -22 13 -34 10 -12 -3 -15 -2 -8 1 15 7 16 34 1 34 -5 0 -8 -4 -5
-9 3 -5 -1 -12 -10 -15 -10 -4 -13 -2 -8 6 5 7 3 8 -7 3 -23 -15 -48 -12 -65
6 -15 17 -15 19 10 30 21 10 29 9 43 -4 17 -14 18 -13 19 21 1 20 0 29 -3 20
-10 -38 -63 -13 -63 29 0 24 -9 29 -26 15 -5 -5 -20 -6 -34 -1 -14 4 -19 7
-12 8 10 1 10 6 1 24 -6 12 -8 19 -4 15 10 -9 37 11 30 22 -3 5 5 6 17 3 16
-3 19 -2 10 4 -10 7 -8 14 9 28 20 19 20 19 15 -5 -7 -29 0 -42 32 -59 22 -11
22 -11 10 8 -11 17 -10 25 1 44 13 21 13 21 -4 7 -17 -14 -18 -13 -12 3 4 11
3 16 -3 12 -6 -3 -10 1 -10 10 0 9 -10 26 -22 37 -13 11 -18 17 -11 14 18 -10
9 23 -12 37 -13 10 -15 16 -6 21 6 4 9 12 6 17 -3 5 2 6 11 2 12 -5 15 -3 9 6
-4 8 -3 16 4 20 6 4 -10 7 -36 7 -27 -1 -51 -4 -54 -9 -7 -10 -49 -18 -49 -9
0 4 8 16 16 27 16 19 16 19 9 -5 -7 -24 -7 -24 12 -7 11 9 23 14 26 10 4 -3 7
-2 7 3 0 6 -5 15 -12 22 -9 9 -9 12 0 12 7 0 12 4 12 10 0 5 -4 9 -9 7 -5 -1
-10 3 -11 8 -1 6 -6 18 -12 28 -8 16 -12 17 -31 4 -29 -18 -47 -11 -47 18 0
13 6 26 13 28 7 3 5 6 -5 6 -10 1 -18 -6 -18 -15 0 -8 -4 -13 -8 -10 -4 2 -8
-4 -9 -14 -1 -11 1 -19 5 -18 19 4 42 -16 37 -32 -3 -11 0 -20 10 -24 8 -3 15
-13 15 -21 0 -10 -5 -13 -12 -9 -7 5 -9 0 -6 -14 5 -18 3 -19 -12 -10 -17 11
-17 13 4 29 17 15 18 18 4 19 -9 0 -18 -5 -20 -11 -2 -6 -15 -13 -28 -14 -14
-1 -29 -3 -34 -4 -5 0 -3 -8 4 -16 7 -8 8 -15 3 -15 -5 0 -15 11 -21 25 -9 19
-8 23 2 19 18 -7 50 42 34 52 -7 4 -8 3 -4 -5 6 -8 1 -8 -18 0 -30 14 -42 39
-24 52 9 6 8 7 -4 3 -10 -3 -18 -1 -18 5 0 6 -6 7 -12 4 -7 -3 -5 0 5 7 10 7
28 21 39 31 28 23 36 22 41 -5 3 -14 4 -10 4 10 -1 19 -6 32 -14 32 -7 0 -13
-4 -13 -10 0 -5 -7 -10 -15 -10 -9 0 -18 -7 -21 -15 -4 -8 -11 -12 -16 -9 -5
4 3 15 19 25 l28 19 -25 1 -25 1 25 7 c14 4 26 15 28 25 3 12 0 16 -7 11 -6
-3 -9 -11 -6 -16 4 -5 1 -9 -4 -9 -6 0 -11 9 -11 20 0 11 -5 20 -11 20 -5 0
-7 -4 -4 -10 3 -5 1 -10 -5 -10 -6 0 -8 -4 -5 -10 3 -6 -1 -7 -10 -4 -10 4
-22 -1 -30 -12 -19 -25 -18 -31 1 -38 14 -5 15 -4 4 9 -10 12 -9 16 4 21 9 4
20 4 23 0 4 -3 2 -6 -4 -6 -6 0 -9 -9 -5 -22 4 -18 2 -20 -14 -14 -30 12 -64
14 -64 4 0 -5 -5 -6 -11 -2 -8 5 -6 10 5 16 9 5 16 16 16 23 0 8 5 15 10 15 7
0 7 -6 0 -20 -6 -11 -7 -20 -3 -20 4 0 13 11 20 25 6 14 7 23 3 20 -5 -3 -12
0 -16 6 -4 8 -9 7 -15 -2 -6 -10 -10 -9 -16 6 -9 21 -33 32 -33 15 0 -6 -6 -5
-14 2 -8 8 -10 15 -4 19 5 3 2 9 -7 12 -9 4 -14 3 -11 -2 7 -10 -22 -25 -41
-22 -15 2 -17 -15 -3 -24 15 -9 12 -22 -6 -29 -11 -4 -15 -2 -11 8 4 10 1 13
-8 9 -8 -3 -12 -9 -9 -14 3 -5 -4 -9 -15 -9 -12 0 -21 -4 -21 -9 0 -4 12 -7
26 -5 32 3 56 -5 48 -17 -3 -5 2 -9 10 -9 9 0 16 -7 16 -16 0 -13 -6 -10 -25
10 -22 24 -29 25 -27 5 1 -3 -5 -6 -13 -6 -7 0 -11 7 -8 14 7 18 -42 10 -66
-10 -9 -8 -21 -12 -28 -10 -8 3 -11 -3 -8 -17 2 -11 0 -18 -5 -15 -14 9 -4 39
16 45 28 8 60 28 53 34 -9 10 -74 -30 -86 -54 -6 -12 -17 -26 -24 -31 -10 -6
-10 -11 1 -23 7 -9 10 -19 6 -23 -3 -3 -6 -1 -6 6 0 8 -7 11 -15 7 -21 -8 -19
13 5 52 21 34 28 58 9 32 -9 -13 -10 -13 -6 0 2 8 10 15 18 14 10 -1 15 15 16
58 2 32 8 68 14 80 8 15 8 23 -2 32 -9 8 -10 8 -5 -1 4 -7 -2 -14 -14 -18 -12
-4 -17 -11 -13 -18 11 -17 11 -50 0 -64 -5 -7 -7 -13 -3 -13 4 0 -2 -17 -12
-37 -11 -21 -17 -44 -14 -52 3 -8 0 -11 -6 -7 -7 4 -9 -1 -7 -14 2 -11 -1 -22
-6 -25 -5 -4 -7 -10 -4 -15 3 -4 -4 -6 -15 -3 -21 5 -54 -20 -42 -32 4 -4 -4
-4 -17 0 -18 5 -22 4 -16 -5 6 -9 4 -11 -5 -5 -10 6 -7 12 11 26 19 14 21 17
6 15 -24 -3 -36 -23 -30 -47 3 -10 1 -19 -5 -19 -5 0 -12 14 -15 30 -4 18 -13
30 -22 30 -11 0 -13 -4 -8 -12 16 -27 12 -43 -5 -22 -10 11 -24 19 -32 17 -10
-3 -8 1 4 11 24 20 8 21 -17 2 -12 -9 -14 -15 -6 -18 9 -3 9 -9 0 -26 -10 -18
-16 -20 -31 -12 -26 14 -29 13 -22 -12 4 -16 2 -19 -8 -13 -10 6 -12 4 -7 -8
5 -12 0 -15 -21 -13 -15 1 -36 -1 -47 -6 -19 -9 -19 -8 -2 5 14 12 15 17 5 23
-20 13 -38 13 -64 2 -29 -13 -32 -32 -4 -23 11 4 20 2 20 -4 0 -6 -3 -10 -7
-10 -21 3 -22 -3 -6 -28 9 -16 13 -25 8 -21 -4 4 -15 2 -24 -5 -14 -11 -15
-10 -1 7 13 16 12 20 -5 32 -10 8 -21 10 -24 5 -8 -11 -72 -20 -65 -9 3 4 1 8
-4 8 -5 0 -12 -14 -16 -30 -5 -29 -6 -30 -23 -13 -12 12 -17 29 -15 53 2 24 0
31 -6 22 -15 -22 -23 -19 -37 13 -7 17 -14 25 -14 19 -1 -7 -7 -14 -15 -17
-17 -7 -29 30 -14 40 7 3 8 1 4 -5 -4 -7 -2 -12 4 -12 7 0 10 6 7 13 -2 6 -16
11 -31 11 l-27 -1 21 21 c11 12 22 37 24 55 2 17 6 35 10 38 3 4 -1 15 -11 25
-9 11 -11 18 -5 18 7 0 12 -4 12 -10 0 -5 4 -10 9 -10 4 0 7 12 5 26 -2 20 0
24 9 15 18 -18 31 -13 16 7 -7 9 -2 7 12 -6 l26 -22 10 23 c8 17 7 27 -2 40
-11 16 -13 16 -19 2 -3 -9 -2 -13 4 -10 6 3 10 1 10 -5 0 -8 -7 -9 -17 -5 -33
13 -48 10 -57 -11 -5 -12 -18 -27 -28 -33 -15 -9 -18 -8 -18 6 0 15 -2 16 -10
3 -5 -8 -10 -11 -10 -6 0 5 7 18 16 27 15 17 15 18 -6 14 -18 -3 -20 -2 -10
10 16 19 43 7 37 -16 -8 -30 3 -22 14 10 8 22 15 28 35 25 18 -2 24 2 20 11
-3 8 -1 17 4 20 6 4 10 1 10 -6 0 -7 3 -9 7 -6 3 4 -1 15 -9 24 -9 10 -14 26
-12 37 2 14 0 16 -9 7 -9 -9 -9 -16 0 -30 10 -15 9 -22 -3 -32 -12 -10 -13 -9
-8 5 4 11 1 16 -10 16 -9 0 -16 -6 -17 -12 0 -10 -2 -10 -6 0 -2 6 -8 10 -13
7 -4 -3 -6 4 -3 15 3 11 13 20 22 19 10 0 11 -2 4 -6 -7 -2 -13 -9 -13 -15 0
-7 5 -6 14 1 18 15 17 53 -1 47 -21 -8 -15 0 14 19 22 15 25 15 20 2 -4 -12 1
-14 25 -10 16 2 28 1 25 -4 -3 -5 5 -10 19 -11 17 -1 24 3 24 16 0 15 -2 15
-10 2 -9 -13 -12 -13 -23 0 -6 8 -18 15 -26 15 -8 0 -16 6 -18 13 -3 6 0 12 7
12 6 0 9 4 6 9 -8 12 28 51 48 51 10 0 14 -5 11 -10 -4 -6 -9 -8 -13 -6 -4 2
-7 -9 -7 -24 0 -16 2 -27 4 -25 2 2 10 -3 18 -11 9 -8 18 -12 21 -9 3 3 -3 11
-14 19 -17 13 -17 14 9 9 27 -5 37 9 15 23 -7 4 -8 3 -4 -4 4 -7 1 -12 -7 -12
-9 0 -14 12 -14 35 0 19 4 32 9 29 4 -3 8 -1 8 5 0 6 7 7 17 4 10 -4 14 -2 10
4 -4 6 -2 13 3 15 6 2 12 10 14 18 9 43 16 48 57 37 51 -13 62 -1 25 28 -20
16 -25 25 -16 30 9 6 11 4 6 -6 -4 -8 -1 -5 8 5 8 10 13 23 10 28 -3 5 5 6 18
3 16 -4 29 -1 37 9 7 9 17 14 21 11 5 -3 12 0 16 6 4 8 3 9 -4 5 -7 -4 -12 -1
-12 8 0 10 6 13 15 10 8 -4 15 -2 15 4 0 5 9 9 20 8 11 0 20 -5 19 -11 -1 -5
-10 -9 -21 -7 -10 2 -18 -2 -18 -9 0 -7 -10 -24 -22 -38 -13 -14 -16 -20 -8
-13 8 6 23 12 33 12 14 0 18 5 14 20 -3 11 -2 18 2 15 14 -8 93 37 82 48 -13
13 -44 0 -35 -14 4 -7 1 -10 -6 -7 -8 2 -16 11 -18 19 -3 8 -1 11 3 7 5 -4 14
-3 21 3 8 6 21 9 29 5 9 -3 15 0 15 9 0 8 5 15 11 15 6 0 8 -9 4 -20 -4 -13
-2 -20 6 -20 7 0 4 -6 -7 -15 -10 -8 -14 -15 -8 -15 14 0 40 30 28 31 -5 0 0
5 11 10 18 9 18 9 -3 5 -19 -4 -21 -2 -11 10 6 7 16 11 22 7 5 -3 17 3 25 13
13 18 14 18 7 -6 -4 -14 -14 -31 -23 -37 -8 -7 -13 -15 -10 -18 7 -8 48 44 48
61 0 7 9 12 20 11 11 -1 20 -6 20 -12 0 -5 4 -4 9 3 7 11 11 11 24 -2 13 -14
16 -14 21 0 3 8 2 12 -4 9 -6 -3 -10 -2 -10 2 0 5 10 13 23 19 29 15 29 15 23
6z m1508 -61 c4 -5 32 -17 64 -26 74 -22 94 -32 123 -60 42 -42 86 -115 68
-115 -5 0 -12 6 -15 14 -3 8 -12 17 -20 20 -11 4 -12 2 -4 -14 11 -21 92 -90
106 -90 5 0 2 5 -6 11 -12 8 -12 9 5 7 11 -1 31 4 44 11 17 9 26 10 34 2 6 -6
27 -11 47 -11 39 0 90 -21 109 -44 7 -8 25 -19 40 -26 24 -10 30 -19 34 -53 3
-23 10 -66 16 -95 13 -68 5 -111 -23 -122 -22 -8 -41 2 -41 22 0 6 -7 12 -16
14 -10 1 -29 8 -43 15 -48 25 -250 126 -316 158 -36 17 -73 31 -82 31 -9 0
-20 5 -23 10 -3 6 -14 10 -24 10 -10 0 -26 9 -36 20 -10 11 -24 20 -32 20 -7
0 -13 4 -13 8 0 4 -21 14 -47 21 -27 8 -55 18 -63 22 -38 18 -112 29 -130 19
-41 -22 -52 -9 -14 16 45 30 90 75 86 87 -1 4 2 7 8 7 6 0 10 5 10 12 0 6 7
20 17 30 9 10 21 28 28 41 8 17 19 21 43 20 17 -2 34 2 37 7 8 12 22 13 29 1z
m-1238 -760 c-8 -13 21 -34 38 -28 7 3 19 0 25 -6 7 -7 12 -7 11 -2 -2 6 -2
18 -1 29 1 16 3 17 18 5 11 -9 14 -10 9 -2 -5 9 -2 11 8 7 9 -3 13 -10 10 -15
-3 -5 1 -9 9 -9 15 0 43 -60 29 -60 -4 0 -1 -4 7 -9 19 -12 44 -93 27 -86 -6
3 -3 0 6 -7 16 -11 15 -14 -8 -29 -21 -14 -23 -17 -9 -23 9 -3 14 -2 11 3 -3
5 5 8 19 7 28 -1 39 -30 19 -51 -8 -8 -10 -16 -5 -20 12 -7 10 -45 -2 -45 -5
0 -6 10 -2 23 6 20 5 21 -8 5 -8 -10 -17 -15 -20 -11 -4 3 1 12 11 19 14 11
14 13 2 14 -12 0 -12 2 -2 9 11 6 7 13 -15 31 -30 23 -35 40 -18 53 5 5 -2 7
-18 4 -20 -3 -25 -1 -18 6 18 18 12 28 -9 17 -15 -8 -20 -8 -20 2 0 9 -3 9
-10 -2 -7 -11 -10 -12 -10 -2 0 10 -8 12 -30 7 -24 -5 -31 -3 -36 12 -10 32
-22 48 -33 45 -7 -1 -14 5 -17 13 -7 18 -36 20 -32 3 2 -7 -2 -14 -7 -15 -21
-6 -10 23 22 55 17 17 29 32 26 32 -3 0 0 7 7 15 13 16 25 21 16 6z m1901 -74
c13 -12 14 -17 4 -17 -9 0 -10 -4 -4 -12 6 -7 13 -26 17 -43 12 -55 27 -83 47
-88 19 -5 20 -12 10 -66 -1 -3 -7 4 -15 14 -14 19 -15 19 -35 1 -12 -11 -21
-27 -21 -36 0 -10 -8 -28 -19 -41 -18 -23 -18 -23 2 -34 12 -6 28 -28 36 -50
8 -22 18 -42 21 -45 12 -9 19 -40 10 -40 -5 0 -9 -8 -8 -17 4 -50 -3 -70 -27
-81 -34 -15 -88 -15 -103 0 -9 9 -15 8 -26 -8 -13 -17 -29 -15 -32 4 -2 18
-17 42 -26 42 -11 0 0 -59 15 -78 5 -7 7 -16 3 -20 -7 -7 -23 13 -26 33 -1 6
-10 24 -19 40 -24 40 -34 94 -20 111 6 8 9 21 5 29 -4 11 3 19 19 25 41 15 76
8 86 -17 10 -27 22 -29 39 -8 10 12 9 16 -4 21 -11 4 -16 19 -16 50 0 42 -11
56 -25 33 -4 -6 -14 -7 -24 -4 -9 4 -21 8 -26 9 -18 3 -85 79 -85 96 0 8 -5
49 -10 90 -11 84 -6 96 53 116 49 18 184 11 204 -9z m-1725 -192 c3 3 4 -11 2
-31 -2 -29 1 -37 17 -41 12 -3 18 -11 15 -19 -3 -8 1 -14 10 -14 8 0 13 4 9 9
-3 5 4 12 15 16 11 3 20 11 20 16 0 6 -4 8 -9 5 -11 -7 -23 36 -13 46 4 4 17
-11 29 -33 16 -29 18 -39 8 -35 -8 3 -22 -2 -30 -11 -20 -19 -11 -31 10 -13 9
7 18 10 22 6 3 -3 2 -6 -4 -6 -8 0 -8 -8 0 -25 7 -14 15 -25 19 -25 3 0 4 -8
1 -18 -5 -22 22 -49 32 -32 5 7 11 5 20 -7 14 -19 1 -48 -17 -37 -5 3 -9 0 -7
-7 3 -26 -1 -39 -12 -39 -8 0 -8 4 0 14 9 11 7 15 -11 21 -13 4 -27 7 -31 6
-5 -1 -6 3 -3 8 3 5 -1 22 -9 37 -18 35 -19 54 -2 54 8 0 7 4 -3 10 -10 6 -11
10 -2 10 6 0 12 5 12 10 0 6 -13 4 -30 -5 -32 -17 -54 -20 -30 -5 9 6 10 10 3
10 -6 0 -15 -5 -19 -11 -11 -18 -24 12 -14 31 6 12 3 22 -13 36 -12 10 -25 19
-29 20 -5 1 -11 2 -14 3 -3 0 -2 6 1 11 5 8 11 8 19 1 14 -12 26 -5 26 16 0 7
-10 13 -22 13 -18 0 -20 2 -8 10 9 5 19 5 26 0 6 -6 13 -7 16 -5z m294 -963
c-3 -10 -8 -33 -10 -52 -7 -58 -23 -88 -48 -92 -17 -2 -24 -11 -26 -33 -2 -16
-10 -38 -19 -47 -8 -9 -17 -35 -20 -57 -7 -48 -6 -48 -123 -21 -47 11 -110 22
-141 25 -32 2 -78 9 -104 15 -25 6 -51 8 -56 4 -5 -3 -15 -1 -22 4 -7 6 -23
12 -37 14 -18 2 -24 8 -22 23 1 11 4 39 6 63 4 52 6 54 53 59 21 2 40 7 43 11
6 9 18 8 42 -2 20 -9 122 -2 203 14 33 7 71 14 85 15 14 2 26 4 28 5 1 2 7 3
12 4 6 0 15 7 19 15 5 8 15 11 23 9 17 -7 78 17 78 31 0 6 7 7 17 4 12 -5 14
-3 8 7 -5 9 -4 11 4 6 6 -4 9 -15 7 -24z m608 -54 c-3 -5 -16 -14 -28 -19 -21
-9 -21 -10 2 -5 14 3 22 -1 22 -9 0 -7 3 -21 7 -31 4 -12 3 -15 -5 -10 -7 4
-12 2 -12 -3 0 -6 4 -11 10 -11 6 0 6 -9 0 -26 -6 -14 -8 -30 -4 -35 3 -5 -1
-9 -8 -9 -11 0 -11 -2 0 -9 9 -5 -10 -10 -50 -14 -85 -8 -195 -2 -353 19 -29
3 -72 21 -79 32 -3 5 -27 7 -53 5 -45 -5 -47 -4 -28 11 15 12 16 15 5 16 -13
0 -13 2 0 10 12 7 12 12 -4 29 -19 21 -19 21 12 17 19 -2 32 1 32 8 0 6 11 19
25 28 26 19 154 29 362 29 73 0 114 3 119 11 5 7 11 5 20 -7 7 -10 11 -22 8
-27z m-1080 -234 c3 -9 6 -24 6 -35 0 -15 7 -19 35 -19 26 0 35 4 35 17 0 13
3 14 12 5 7 -7 23 -12 35 -12 13 0 34 -9 46 -20 12 -12 32 -23 44 -26 13 -4
23 -10 23 -15 0 -5 6 -9 13 -9 16 -1 95 -39 81 -40 -10 0 -6 -42 6 -79 1 -2
-4 -7 -10 -11 -14 -9 -5 -30 12 -30 7 0 9 15 5 40 -4 33 -1 43 16 55 30 21 65
19 79 -5 7 -11 23 -20 35 -20 19 0 21 -4 16 -34 -4 -29 -1 -38 30 -66 19 -17
42 -50 50 -73 8 -23 18 -50 22 -59 4 -11 3 -18 -5 -18 -6 0 -8 6 -5 13 4 6 -5
-1 -19 -18 -14 -16 -26 -40 -26 -51 0 -12 -7 -24 -15 -28 -8 -3 -15 -10 -15
-15 0 -6 7 -8 15 -5 11 5 13 2 9 -10 -3 -8 -14 -18 -25 -21 -16 -5 -17 -9 -6
-28 7 -12 18 -26 25 -30 9 -6 9 -13 2 -28 -14 -25 -40 -25 -40 1 0 21 -16 28
-18 8 -4 -51 -10 -86 -20 -105 -7 -12 -12 -31 -12 -43 0 -18 -3 -19 -21 -10
-11 7 -18 14 -15 17 8 8 -50 53 -68 53 -18 0 -19 2 -10 24 5 12 10 14 19 6 17
-14 43 16 27 32 -8 8 -16 7 -28 -3 -16 -13 -16 -9 -10 56 4 39 12 74 17 79 5
6 9 20 9 33 0 13 5 23 10 23 6 0 10 7 10 16 0 11 -6 13 -20 9 -17 -5 -19 -1
-20 37 -2 74 -4 88 -15 85 -12 -5 -12 -31 -1 -66 5 -15 5 -21 -2 -17 -15 9
-25 -48 -17 -96 7 -38 6 -41 -8 -29 -15 12 -16 8 -10 -37 7 -60 -2 -95 -18
-72 -8 11 -9 8 -6 -15 3 -16 1 -37 -4 -47 -6 -10 -5 -19 1 -23 14 -9 2 -25
-14 -19 -16 6 -40 -21 -31 -36 7 -12 -1 -12 -44 -4 -20 4 -31 12 -31 23 0 19
-19 41 -35 41 -17 0 -36 -51 -25 -65 7 -9 6 -14 -4 -18 -10 -4 -18 5 -27 31
-15 48 -25 58 -42 44 -23 -19 -107 9 -107 36 0 11 -8 13 -30 9 -43 -9 -59 0
-66 38 -4 22 -13 35 -26 38 -16 4 -19 12 -16 30 4 22 2 25 -19 21 -13 -3 -31
0 -40 5 -13 7 -9 11 20 22 42 15 46 31 16 62 -17 17 -20 18 -16 5 9 -27 -4
-28 -53 -5 -25 11 -56 22 -70 23 -53 6 -95 16 -107 26 -8 6 -19 6 -32 -1 -25
-14 -104 -15 -96 -1 3 6 1 10 -4 10 -6 0 -11 -4 -11 -10 0 -5 -7 -10 -16 -10
-10 0 -14 6 -11 15 5 11 0 13 -25 8 -29 -6 -31 -5 -26 20 3 15 -1 35 -8 44
-12 17 -13 17 -20 0 -4 -11 0 -33 9 -52 20 -41 11 -50 -55 -60 -46 -7 -177 16
-203 35 -5 4 -31 11 -57 14 -50 8 -62 20 -29 31 24 7 35 38 23 62 -5 10 -7 24
-5 31 3 7 -3 22 -13 33 -18 20 -18 21 1 35 26 19 32 18 51 -11 14 -21 21 -24
58 -19 29 4 52 1 74 -10 29 -15 34 -15 77 4 50 21 163 29 223 15 37 -9 37 -7
15 -57 -19 -43 -28 -47 -36 -16 -4 12 -9 20 -12 16 -7 -7 -9 -97 -2 -104 9 -9
47 34 47 54 1 26 27 55 52 57 15 1 24 9 26 23 5 32 45 38 95 16 23 -10 44 -21
47 -25 3 -3 15 -9 28 -13 15 -5 22 -15 22 -31 0 -24 -1 -24 -97 -24 -54 0
-103 0 -110 0 -6 -1 -9 -10 -6 -21 7 -26 40 -45 56 -32 17 13 80 11 90 -2 5
-8 9 -8 15 0 16 23 41 23 48 1 5 -12 7 -25 6 -29 -3 -12 40 -20 51 -9 6 6 11
33 11 61 1 32 6 52 15 55 7 3 10 12 7 20 -3 9 0 25 7 36 10 17 9 22 -5 33 -19
14 -25 32 -8 21 6 -3 10 -1 10 4 0 6 -4 11 -8 11 -4 0 -14 20 -21 44 -9 31
-17 43 -27 39 -23 -9 -16 9 16 37 30 26 148 59 169 46 5 -4 12 -2 16 4 3 5 25
10 48 10 32 0 38 3 29 12 -14 14 -16 48 -3 48 5 0 12 -7 15 -16z m-564 -614
c0 -6 9 -6 26 0 14 6 30 10 35 10 10 0 -6 -33 -31 -64 -35 -43 -12 -259 37
-349 8 -16 12 -31 9 -34 -3 -3 -13 11 -22 30 -17 35 -44 57 -44 36 0 -6 -5 -7
-11 -3 -7 4 -7 -1 1 -16 6 -12 10 -24 7 -26 -9 -9 -37 27 -43 54 -3 15 -11 48
-19 75 -17 57 -15 211 3 229 19 19 14 25 -18 20 -34 -5 -41 13 -12 34 20 15
82 19 82 4z m-96 -112 c-16 -24 -29 -45 -30 -48 0 -3 -4 -13 -8 -22 -9 -20 -3
-93 12 -153 5 -22 13 -55 18 -74 l7 -34 -26 19 c-15 10 -27 25 -27 33 0 10 -3
11 -14 2 -23 -19 -37 12 -43 94 -5 71 1 101 35 159 3 5 -9 6 -26 3 -29 -6 -32
-4 -32 18 0 18 8 28 26 35 42 16 63 13 59 -10 -6 -32 10 -32 40 0 39 41 44 29
9 -22z m-364 -69 c0 -19 -42 -51 -62 -46 -11 3 -27 -2 -36 -11 -10 -10 -33
-28 -52 -41 -64 -45 -200 -162 -200 -173 0 -5 7 -8 15 -5 21 9 27 -7 11 -29
-8 -10 -12 -24 -9 -31 3 -7 0 -13 -7 -13 -6 0 -8 5 -5 10 7 11 -22 26 -32 16
-3 -3 2 -15 12 -26 18 -19 17 -20 -3 -20 -13 0 -22 6 -22 14 0 10 -7 13 -21
11 -17 -4 -19 -2 -9 11 11 12 9 13 -11 4 -13 -6 -32 -13 -42 -16 -19 -7 -23
-20 -7 -26 6 -2 1 -9 -11 -16 -17 -11 -20 -11 -13 0 4 7 9 21 9 31 1 10 15 32
31 50 71 76 81 98 85 180 4 73 6 78 39 106 19 17 38 30 42 31 13 0 63 -52 60
-63 -2 -5 2 -13 7 -17 7 -4 4 -14 -9 -28 -47 -50 -7 -34 55 23 22 20 53 39 68
42 15 3 25 8 22 11 -3 3 12 13 32 22 38 17 63 16 63 -1z m1806 -59 c-5 -14
-16 -32 -23 -41 -7 -8 -13 -21 -13 -27 0 -6 -8 -17 -18 -24 -14 -10 -19 -27
-21 -67 -1 -29 -4 -57 -6 -61 -12 -20 13 -44 80 -75 40 -19 80 -35 89 -35 9 0
16 -3 16 -8 0 -9 79 -43 115 -49 71 -11 108 -6 149 22 20 13 36 20 36 15 0 -5
-5 -12 -10 -15 -6 -4 -8 -11 -5 -16 4 -5 2 -9 -4 -9 -6 0 -15 -19 -21 -42 -25
-95 -30 -106 -57 -111 -27 -5 -88 2 -193 23 -30 6 -65 12 -77 14 -38 7 -154
69 -150 80 6 18 53 19 86 2 37 -20 36 -20 57 1 15 16 17 16 30 -2 8 -10 17
-15 21 -11 4 4 2 10 -4 14 -6 4 -15 20 -18 35 -4 15 -11 28 -16 28 -5 1 -13 2
-18 3 -5 0 -13 4 -17 9 -4 4 -18 7 -31 7 -14 0 -31 7 -39 15 -18 17 -50 20
-59 5 -4 -6 -16 -3 -32 10 -28 22 -68 26 -79 9 -9 -15 11 -26 65 -34 36 -5 42
-9 28 -16 -18 -11 -24 -69 -7 -69 17 0 11 -48 -7 -58 -17 -10 -68 2 -88 19 -5
5 -25 9 -44 9 -31 0 -34 -2 -20 -15 8 -8 37 -19 64 -24 27 -5 55 -17 62 -27
19 -26 16 -40 -4 -21 -15 13 -21 13 -35 3 -10 -7 -18 -23 -18 -35 0 -11 -5
-21 -11 -21 -7 0 -9 10 -5 26 5 20 3 27 -14 31 -11 3 -20 9 -20 14 0 13 -34
11 -48 -3 -8 -8 -12 -62 -12 -175 l0 -163 -29 0 c-43 0 -46 -15 -9 -41 18 -12
35 -24 37 -26 2 -1 -1 -9 -8 -17 -12 -14 -47 -10 -148 16 -35 9 -43 15 -43 34
0 13 4 24 10 24 5 0 12 11 16 25 5 22 11 24 72 27 73 3 85 15 51 49 -17 17
-29 20 -66 16 l-45 -5 4 234 c4 212 6 235 23 254 12 13 27 19 39 16 11 -3 26
0 34 6 11 10 16 8 23 -5 6 -9 18 -17 28 -17 10 0 24 -6 31 -14 6 -8 21 -16 33
-18 19 -3 23 -11 28 -63 6 -65 8 -62 15 33 4 47 2 62 -8 63 -30 3 -35 5 -52
22 -14 14 -16 20 -6 32 10 12 9 15 -9 15 -11 0 -21 -4 -21 -10 0 -5 -13 -10
-30 -10 -16 0 -30 5 -30 10 0 6 -8 10 -17 10 -14 0 -14 3 -5 12 10 10 15 10
21 -1 7 -10 15 -11 37 -3 l29 10 -28 1 c-15 1 -43 11 -62 24 -32 22 -33 24
-14 35 23 14 25 32 4 32 -8 0 -15 5 -15 10 0 6 -7 10 -15 10 -9 0 -12 6 -9 15
4 8 11 12 18 8 25 -16 56 -13 68 7 19 29 38 25 38 -9 0 -19 8 -35 22 -45 17
-12 19 -18 9 -30 -8 -10 -9 -16 -1 -21 6 -3 8 -10 5 -15 -3 -5 0 -12 5 -15 6
-4 15 -18 21 -32 7 -20 13 -23 32 -17 12 5 37 7 55 6 28 -2 32 0 24 15 -13 27
-6 114 9 124 22 14 37 10 44 -11 9 -28 45 -27 40 0 -2 12 2 23 9 26 18 7 8 42
-15 55 -28 15 -23 36 13 53 39 20 38 20 39 -1 0 -12 2 -13 6 -5 4 10 8 10 19
1 11 -9 14 -6 15 17 l1 29 7 -30 c4 -16 3 -41 -3 -55z m-672 -305 c3 -66 8
-181 12 -256 7 -134 7 -137 -14 -143 -12 -4 -26 -4 -32 -1 -13 8 -13 97 1 320
15 252 23 272 33 80z m-757 16 c2 -29 0 -58 -5 -65 -5 -6 -8 -26 -6 -43 1 -18
-2 -33 -8 -33 -7 0 -6 -5 1 -14 13 -15 10 -76 -8 -191 -21 -131 -33 -175 -48
-175 -9 0 -11 -5 -7 -12 6 -10 5 -10 -7 -1 -8 6 -36 14 -64 18 -70 10 -89 33
-91 109 -1 85 -2 85 -24 48 -14 -22 -17 -38 -12 -50 15 -29 3 -92 -18 -92 -13
0 -22 16 -34 60 -14 49 -16 81 -10 168 4 59 8 131 8 161 l1 55 77 26 c42 14
87 35 100 46 39 35 61 44 107 41 l44 -2 4 -54z m289 -24 c2 -40 5 -126 9 -192
3 -66 2 -126 -3 -133 -11 -16 -119 -45 -138 -38 -31 12 0 230 41 293 8 12 15
28 15 35 0 17 63 119 69 112 3 -3 6 -37 7 -77z m370 74 c-3 -4 -6 -125 -7
-267 0 -142 -5 -279 -9 -304 -6 -35 -8 -39 -9 -15 -1 33 -20 73 -21 45 -1 -12
-3 -11 -11 3 -12 20 -69 24 -69 4 0 -15 37 -40 49 -32 12 7 21 -19 12 -34 -9
-14 -54 -17 -96 -7 -16 4 -63 10 -103 13 -59 5 -72 3 -70 -8 2 -10 -7 -14 -32
-14 -28 0 -35 4 -35 19 0 11 -9 21 -20 23 -11 3 -32 7 -47 10 -16 3 -28 8 -28
12 1 16 19 33 29 27 6 -4 14 -1 17 8 8 20 34 9 34 -15 0 -15 7 -19 34 -19 31
0 34 3 42 43 8 36 13 42 37 45 19 2 27 -1 27 -12 0 -8 7 -22 16 -31 16 -15 19
-15 39 11 15 18 24 24 29 16 4 -7 22 -12 40 -12 l33 0 6 218 c4 119 8 226 10
236 2 12 18 25 38 32 40 15 72 17 65 5z m-606 -194 c0 -16 9 -40 20 -54 16
-21 20 -41 20 -100 0 -91 -10 -113 -51 -113 l-31 0 7 98 c3 53 7 122 7 152 1
30 3 59 6 64 7 13 22 -17 22 -47z m-459 -69 c1 -29 1 -74 1 -100 -1 -26 5 -60
13 -75 20 -39 20 -103 -1 -103 -26 0 -54 20 -54 39 0 10 -9 26 -20 36 -37 33
-24 209 17 241 33 25 43 17 44 -38z m-112 -72 c2 -59 0 -65 -28 -88 -25 -21
-28 -31 -24 -61 2 -20 0 -38 -7 -42 -6 -3 -54 -9 -108 -11 -69 -4 -100 -9
-108 -19 -13 -18 -60 -20 -70 -4 -5 9 1 10 20 5 15 -4 26 -2 26 4 0 5 -8 10
-17 11 -12 0 -6 6 15 16 17 9 32 20 32 24 0 4 9 5 20 2 36 -9 70 5 70 30 0 13
-5 28 -12 35 -9 9 -8 18 3 39 15 29 48 62 62 63 9 0 4 -75 -8 -122 -7 -27 -7
-27 23 -16 l30 12 -3 73 c-3 68 -2 74 22 93 47 37 60 28 62 -44z m4271 -1 c22
-14 44 -25 49 -25 6 0 16 -9 24 -20 7 -11 33 -27 57 -35 24 -9 51 -21 60 -28
8 -7 47 -28 85 -47 108 -53 126 -73 81 -90 -29 -11 -87 5 -134 37 -19 12 -43
25 -54 29 -11 3 -28 14 -38 24 -11 11 -37 24 -59 30 -22 6 -43 15 -46 20 -7
11 -35 2 -35 -11 0 -5 8 -9 18 -9 15 -1 15 -2 -3 -17 -20 -15 -20 -15 3 -10
30 7 28 -1 -5 -14 -18 -7 -30 -6 -37 1 -5 5 -20 10 -32 10 -12 0 -26 6 -31 13
-16 19 -25 125 -13 147 15 28 62 26 110 -5z m-4561 -416 c-1 -32 -5 -59 -10
-59 -4 0 -12 -14 -18 -30 -13 -39 -31 -39 -31 0 0 23 -6 33 -25 40 -28 11 -47
51 -43 89 3 23 9 27 48 31 70 9 81 -1 79 -71z"/>
<path d="M6937 5244 c-4 -4 -28 -10 -54 -14 -27 -5 -83 -25 -125 -45 -64 -31
-83 -46 -108 -85 -16 -26 -30 -54 -30 -63 0 -17 -67 -77 -87 -77 -6 0 -26 -20
-44 -45 -20 -28 -45 -49 -65 -55 -54 -18 -70 -52 -72 -152 -2 -83 -1 -87 25
-108 26 -20 28 -20 40 -4 7 10 16 14 20 9 5 -4 2 -10 -4 -12 -23 -8 -14 -43
14 -54 25 -9 39 -7 96 16 14 6 17 2 17 -23 0 -24 5 -31 25 -34 22 -5 24 -2 19
18 -4 14 -2 24 4 24 20 0 24 -20 11 -50 -13 -27 -15 -28 -31 -13 -12 11 -22
13 -28 7 -14 -14 -21 -54 -9 -54 5 0 9 5 9 11 0 8 4 8 14 0 14 -12 11 -57 -6
-78 -10 -12 6 -53 21 -53 30 0 123 24 158 40 24 11 47 20 51 20 5 0 23 7 41
16 42 21 94 12 109 -19 6 -12 14 -47 17 -77 4 -30 14 -71 23 -90 14 -29 17
-67 17 -220 0 -102 4 -201 8 -220 8 -34 6 -37 -60 -103 l-68 -67 2 -133 c1
-97 7 -156 23 -222 12 -49 25 -124 30 -165 4 -41 15 -115 25 -163 10 -48 15
-91 11 -94 -3 -3 -41 0 -83 6 -145 24 -149 24 -166 7 -8 -9 -22 -16 -30 -16
-17 0 -77 -65 -77 -83 0 -7 5 -18 11 -24 16 -16 1 -37 -16 -23 -19 15 -29 -4
-15 -30 14 -26 35 -25 62 3 49 48 108 59 122 21 4 -9 5 -18 4 -18 -2 -1 -18
-14 -36 -29 -24 -19 -45 -27 -74 -27 -30 0 -47 -6 -62 -23 -12 -13 -29 -28
-38 -33 -8 -5 -18 -24 -21 -42 -4 -21 -3 -31 3 -27 6 3 10 1 10 -4 0 -6 10
-11 23 -11 36 0 51 -14 32 -30 -8 -7 -15 -18 -15 -24 0 -6 -18 -19 -40 -29
-36 -17 -55 -47 -30 -47 16 0 11 -38 -6 -48 -23 -13 -2 -24 30 -16 13 3 34 17
47 30 23 25 49 32 49 14 0 -5 -5 -10 -10 -10 -15 0 -80 -67 -80 -81 0 -7 3 -9
7 -6 3 4 13 2 20 -5 12 -10 11 -14 -9 -24 -22 -13 -22 -13 11 -14 21 0 44 9
63 25 29 25 58 33 58 16 0 -4 -18 -20 -40 -35 -41 -27 -55 -66 -24 -66 8 0 12
-5 9 -10 -4 -6 -11 -8 -16 -5 -5 4 -9 -1 -9 -11 0 -13 6 -15 32 -10 17 3 39
13 48 21 9 8 22 15 29 15 7 0 30 13 51 30 21 17 42 30 47 30 5 0 24 11 43 25
19 14 37 25 40 25 3 0 13 -30 22 -68 12 -52 13 -99 8 -212 -6 -133 0 -236 26
-442 5 -36 1 -67 -17 -120 -13 -40 -23 -95 -24 -123 l0 -50 43 -3 c32 -2 42 0
42 12 0 8 8 28 17 44 13 22 27 32 54 36 32 5 41 1 73 -28 20 -19 36 -39 36
-45 0 -16 21 -13 42 6 16 14 46 18 168 21 l149 4 12 -26 c9 -19 20 -26 39 -26
40 0 52 -20 35 -54 -18 -34 -19 -53 -4 -58 7 -2 5 -11 -7 -23 -13 -13 -15 -20
-6 -23 17 -5 15 -22 -3 -22 -17 0 -20 -16 -5 -25 6 -3 10 -19 10 -35 0 -15 7
-30 15 -34 8 -3 15 -15 15 -26 0 -18 -6 -20 -57 -20 -60 -1 -93 -16 -93 -43 0
-27 -36 -38 -128 -38 -48 0 -89 0 -92 0 -13 3 -256 13 -345 14 -93 1 -100 0
-100 -18 0 -18 8 -20 82 -23 71 -2 83 -5 88 -22 10 -30 32 -24 39 10 5 27 26
43 26 20 0 -6 33 -10 80 -10 77 0 80 -1 86 -25 3 -14 10 -25 15 -25 10 0 34
43 28 49 -10 10 167 -1 178 -11 7 -6 13 -19 13 -29 0 -10 9 -23 20 -29 23 -12
28 -45 5 -36 -8 3 -19 -2 -24 -12 -7 -13 -25 -17 -68 -19 -266 -8 -326 -12
-336 -22 -8 -8 10 -11 65 -11 100 0 108 -4 108 -50 0 -38 0 -38 -47 -44 -27
-4 -69 -6 -95 -5 -46 2 -47 3 -53 40 -4 21 -4 47 0 59 3 11 5 20 3 21 -2 0
-51 3 -110 5 -91 4 -108 2 -108 -10 0 -12 18 -16 88 -18 l87 -3 3 -53 c5 -79
-12 -99 -85 -104 -67 -4 -123 14 -124 40 0 9 -1 88 -2 175 -2 97 -7 161 -13
165 -6 4 -13 14 -16 23 -5 13 -17 15 -61 11 -31 -2 -63 1 -76 8 -14 7 -27 8
-34 2 -17 -14 -97 -8 -132 10 -95 48 -194 14 -195 -68 0 -28 4 -32 35 -38 l35
-7 -6 -53 c-4 -33 -2 -56 4 -60 10 -6 10 -31 -3 -316 -2 -52 -4 -121 -4 -152
-1 -44 -5 -58 -15 -58 -22 0 -29 -18 -30 -72 l-2 -48 1073 0 1072 0 3 93 3 92
60 -57 c33 -32 67 -58 76 -58 9 0 22 -7 29 -15 17 -20 100 -20 142 1 23 11 40
30 54 62 l21 47 11 -40 c19 -65 16 -104 -10 -115 -15 -6 32 -9 139 -9 120 -1
162 2 166 12 3 9 9 9 26 0 16 -10 199 -13 821 -13 l800 0 0 910 0 910 -25 -12
c-14 -6 -25 -17 -25 -25 0 -7 -4 -13 -10 -13 -5 0 -10 5 -10 11 0 5 -5 7 -11
4 -7 -5 -4 -14 7 -26 9 -10 14 -19 9 -19 -4 0 -2 -6 4 -14 10 -12 9 -21 -3
-43 l-14 -28 -11 28 c-6 15 -15 27 -20 27 -11 0 -13 29 -15 170 l-1 105 45 -1
c25 0 53 -4 63 -8 16 -7 17 0 17 90 0 54 -5 112 -12 130 -9 26 -9 38 0 56 9
15 12 61 10 138 -2 78 -6 109 -12 95 -5 -11 -19 -31 -30 -45 -31 -36 -43 -82
-51 -189 -9 -123 -19 -139 -105 -160 -22 -6 -25 -11 -22 -48 4 -43 -3 -53 -63
-97 -19 -14 -19 -15 -1 -35 17 -19 17 -21 3 -21 -10 0 -17 5 -17 11 0 21 -64
0 -93 -31 -15 -17 -33 -30 -40 -30 -18 0 -63 -90 -50 -98 15 -10 -4 -44 -41
-73 -46 -36 -52 -67 -50 -257 1 -139 -2 -176 -13 -188 -19 -19 -40 -18 -51 2
-7 13 -13 4 -27 -37 -15 -44 -18 -86 -18 -234 1 -124 -3 -182 -11 -187 -8 -6
-8 -8 1 -8 16 0 18 -246 1 -256 -6 -4 -45 -6 -87 -4 -42 2 -92 3 -111 4 -35 1
-35 1 -32 42 2 28 -2 45 -12 53 -9 8 -16 21 -16 31 0 10 -17 44 -37 76 -31 46
-38 67 -38 106 0 47 -17 68 -23 28 -2 -11 -9 -20 -17 -20 -23 0 -65 59 -65 91
0 17 -7 38 -16 46 -10 10 -13 24 -9 37 15 48 24 91 20 95 -3 2 -11 -2 -20 -9
-12 -10 -15 -9 -15 6 0 29 23 84 36 84 6 0 25 -7 40 -15 16 -8 36 -15 44 -15
8 0 28 -7 45 -16 27 -14 33 -14 72 1 23 9 45 24 48 34 5 17 64 51 89 51 17 0
31 33 17 38 -6 2 -8 16 -4 33 5 27 3 29 -26 31 -17 0 -35 1 -41 2 -12 1 -48
-23 -69 -46 -21 -24 -63 -23 -92 3 -13 12 -38 28 -55 35 -37 16 -68 59 -61 86
3 11 0 21 -9 24 -51 15 -51 14 -9 52 39 36 40 36 43 14 2 -13 -2 -29 -8 -37
-15 -18 -5 -35 19 -35 35 0 45 26 34 84 -7 41 -6 58 4 72 17 23 17 50 -1 57
-9 4 -36 -17 -70 -54 -31 -32 -60 -59 -66 -59 -5 0 -10 -6 -10 -14 0 -27 -71
-59 -84 -38 -7 12 105 122 124 122 6 0 10 4 10 10 0 5 18 27 41 47 42 40 69
81 69 108 0 18 -46 21 -53 3 -3 -7 -6 -1 -6 14 -1 17 5 29 17 32 18 6 42 57
42 89 0 23 -16 29 -33 13 -8 -8 -17 -12 -21 -9 -3 4 -6 -1 -6 -10 0 -9 -4 -17
-9 -17 -4 0 -21 -18 -36 -40 -25 -36 -55 -53 -55 -32 0 9 77 97 129 147 31 30
31 31 30 133 0 56 -5 102 -10 102 -12 0 -12 47 0 54 5 4 9 53 9 111 0 85 -3
105 -15 105 -12 0 -12 3 1 16 9 8 16 30 16 49 0 18 6 35 13 38 8 3 7 9 -6 19
-16 12 -17 20 -9 67 7 40 6 55 -3 64 -8 8 -10 19 -4 34 5 13 8 40 8 60 0 103
2 128 12 134 8 4 8 9 -1 14 -8 5 -11 29 -9 69 2 33 1 66 -3 71 -3 6 -2 32 3
59 6 31 5 53 -1 61 -5 6 -7 15 -4 18 4 3 6 73 6 154 0 81 2 156 4 166 3 9 15
17 27 18 20 1 20 2 -3 8 -33 9 -40 61 -12 89 18 18 18 19 1 31 -24 14 -27 89
-4 97 14 6 14 8 0 18 -25 18 -16 87 12 102 l23 11 -25 13 c-28 15 -32 43 -13
85 9 19 9 28 0 37 -16 16 -15 60 2 83 12 17 12 21 -2 31 -25 18 -5 86 27 94
l24 5 -27 12 c-14 7 -26 17 -26 23 0 13 22 53 34 61 15 11 71 -18 68 -35 -2
-9 2 -16 8 -16 5 0 10 7 10 16 0 13 7 15 33 10 17 -3 62 -8 100 -12 37 -4 67
-11 67 -15 0 -5 9 -9 19 -9 24 0 36 -16 19 -23 -7 -2 -1 -8 15 -12 17 -4 33
-3 42 5 21 17 76 3 73 -18 -3 -19 32 -28 60 -16 14 6 13 8 -8 15 -16 5 -7 6
25 2 59 -7 94 -22 55 -24 -21 -1 -20 -3 10 -11 19 -5 49 -12 65 -14 17 -3 39
-10 50 -15 28 -13 69 -5 73 14 3 14 -6 17 -51 17 -37 0 -57 4 -60 14 -3 7 -20
16 -39 19 -153 23 -248 48 -248 64 0 7 6 11 13 9 6 -3 31 -7 55 -10 40 -6 42
-5 42 20 0 25 -2 26 -55 22 -51 -3 -56 -1 -53 17 3 17 9 20 47 16 25 -1 65 -9
90 -17 63 -19 81 -18 81 6 0 14 -9 21 -37 26 -21 3 -63 12 -94 20 -31 8 -70
14 -86 14 -16 0 -38 7 -49 15 -32 24 -61 19 -66 -13 -4 -26 -2 -27 29 -24 31
4 33 2 33 -24 0 -16 -4 -35 -9 -43 -10 -16 -31 -6 -31 14 0 8 -5 17 -10 20 -6
4 -9 1 -8 -7 2 -8 -5 -12 -17 -11 -60 7 -95 16 -95 24 0 13 -38 11 -42 -1 -4
-13 -81 -3 -104 14 -9 7 -14 22 -12 37 l3 24 22 -22 c21 -21 24 -21 50 -8 25
13 29 13 35 -3 4 -9 7 -11 7 -4 1 6 10 12 21 12 11 0 20 5 20 10 0 20 42 10
47 -10 9 -34 38 -20 38 18 -1 32 0 32 46 32 25 0 66 -7 90 -15 24 -9 50 -13
57 -10 8 3 24 -1 36 -9 12 -7 45 -17 74 -21 43 -6 52 -4 52 9 0 9 -16 20 -42
27 -53 15 -75 33 -33 27 17 -3 38 -9 48 -13 16 -7 18 -4 15 20 -3 29 -13 34
-73 36 -16 1 -42 8 -56 15 -22 11 -28 11 -42 -3 -15 -15 -18 -14 -35 7 -14 17
-31 24 -61 26 -23 1 -47 7 -54 12 -21 18 -41 -2 -33 -33 5 -20 3 -26 -6 -23
-7 3 -15 15 -16 28 -3 18 -6 20 -12 9 -7 -11 -12 -11 -22 -1 -6 6 -28 12 -47
12 -20 0 -53 5 -75 11 l-38 11 7 41 c3 23 7 50 8 60 1 10 9 17 22 17 12 0 27
6 34 13 10 10 14 9 22 -5 6 -10 21 -18 34 -18 26 0 81 -11 230 -46 97 -23 145
-27 145 -13 0 10 -27 19 -56 19 -51 0 -12 17 42 19 61 1 74 6 74 25 0 8 -30
19 -83 29 -45 9 -109 25 -142 35 -33 11 -85 23 -115 27 -77 9 -118 25 -124 48
-6 25 -22 14 -45 -31 -10 -20 -30 -49 -44 -64 -13 -14 -27 -42 -31 -61 -4 -19
-15 -46 -26 -60 -11 -14 -20 -34 -20 -44 0 -10 -4 -23 -9 -28 -16 -17 -47 -79
-54 -107 -4 -15 -16 -32 -27 -38 -11 -6 -20 -19 -20 -30 0 -10 -4 -22 -10 -25
-5 -3 -10 -28 -10 -54 0 -27 -7 -66 -16 -87 -24 -60 -58 -124 -66 -124 -5 0
-8 -9 -8 -20 0 -12 -7 -31 -14 -43 -8 -12 -17 -36 -21 -54 -3 -18 -10 -44 -15
-58 -14 -37 -13 -45 9 -45 11 0 23 -5 27 -11 6 -10 6 -142 0 -389 0 -36 -5
-71 -9 -78 -5 -8 -4 -25 3 -42 8 -20 9 -38 1 -65 -6 -21 -7 -45 -2 -54 8 -18
6 -180 -3 -189 -3 -3 1 -13 10 -23 15 -17 15 -21 0 -53 -20 -42 -20 -45 0 -67
14 -16 14 -20 -1 -49 -14 -27 -15 -37 -4 -56 9 -18 10 -32 1 -60 -7 -22 -7
-45 -2 -59 5 -14 5 -38 -1 -59 -7 -26 -7 -46 2 -71 10 -27 10 -38 1 -47 -17
-17 -15 -45 5 -57 17 -9 17 -11 0 -45 -22 -46 -21 -62 1 -75 16 -10 16 -12 0
-41 -25 -44 -24 -74 2 -67 25 6 25 4 -1 -49 -25 -48 -20 -79 11 -69 19 6 19 5
4 -32 -9 -21 -20 -43 -25 -49 -9 -11 -2 -44 9 -44 3 0 43 39 89 87 46 48 83
81 83 74 0 -11 -21 -37 -82 -102 -10 -11 -18 -22 -18 -25 0 -4 -12 -19 -27
-34 -41 -40 -65 -87 -58 -112 7 -20 8 -20 37 11 16 17 33 31 39 31 5 0 9 6 9
14 0 19 19 31 31 19 13 -13 1 -43 -17 -43 -8 0 -14 -6 -14 -13 0 -7 -14 -24
-31 -36 -27 -20 -59 -74 -59 -100 0 -5 11 -11 25 -13 l25 -3 -19 -35 c-18 -35
-19 -35 -79 -32 -51 3 -62 1 -80 -18 -28 -30 -39 -122 -18 -151 13 -19 13 -24
-1 -46 -9 -13 -22 -22 -29 -19 -7 3 -18 -2 -24 -10 -20 -23 -69 -18 -80 8 -7
18 -4 28 16 45 29 26 44 29 44 9 0 -16 28 -41 37 -33 7 8 -16 67 -27 67 -3 0
-12 11 -19 24 -7 13 -18 23 -25 23 -28 -1 -46 4 -44 10 1 5 -2 18 -6 31 -4 12
-2 38 4 57 14 43 7 68 -25 85 -14 7 -25 19 -25 27 0 7 -11 13 -24 13 -38 0
-45 38 -12 65 14 11 26 26 26 33 0 7 4 12 9 12 5 0 7 9 4 20 -4 15 -11 19 -25
14 -13 -4 -24 -1 -29 7 -4 8 -14 14 -21 14 -7 0 -14 11 -16 25 -3 25 -2 25 14
5 16 -20 16 -19 9 5 -4 14 -9 46 -10 72 -1 27 -5 51 -8 55 -4 3 -7 16 -7 27 0
24 -103 106 -132 106 -24 0 -23 11 5 55 25 43 50 70 92 103 l30 23 -37 -6 -37
-6 14 28 c22 41 19 46 -20 40 -34 -6 -35 -5 -36 26 -1 18 0 44 1 59 1 18 -7
36 -23 50 -13 13 -27 32 -31 43 -3 11 -21 29 -38 40 -32 19 -43 22 -100 24
-27 1 -28 3 -28 51 0 39 4 50 16 50 8 0 19 13 25 28 8 24 14 28 39 24 25 -4
30 -1 30 16 0 11 11 29 25 40 32 25 32 34 1 26 -18 -4 -28 0 -37 14 -7 11 -19
18 -26 15 -14 -6 -11 11 10 55 9 20 5 28 -36 69 -36 36 -48 56 -53 90 -9 60
-40 83 -113 83 -38 0 -51 3 -41 10 17 10 7 25 -18 25 -11 0 -17 10 -18 30 -1
26 4 33 37 47 44 19 51 38 14 38 -23 0 -24 2 -18 49 9 75 0 95 -49 114 -23 9
-39 20 -35 23 4 4 13 2 20 -4 10 -9 18 -8 33 3 17 13 17 14 2 15 -10 0 -24 17
-34 40 -15 35 -24 41 -56 46 -21 4 -38 10 -38 14 0 4 -8 7 -17 6 -21 -1 -52
59 -45 87 7 26 32 34 47 14 18 -24 32 -21 47 10 21 45 78 39 78 -8 0 -11 7
-19 15 -19 15 0 16 3 21 55 2 35 -37 108 -69 129 -24 16 -157 30 -157 17 0 -4
18 -16 40 -27 42 -20 53 -49 23 -57 -10 -3 -35 -8 -55 -12 -29 -4 -38 -11 -38
-25 0 -27 -13 -25 -27 5 -8 17 -8 27 -1 32 7 4 6 10 -5 17 -19 15 -17 67 3 83
13 11 13 12 -3 13 -10 0 -23 5 -30 10 -7 6 -30 26 -52 45 -22 19 -45 35 -52
35 -22 0 -23 18 -4 52 25 43 18 95 -15 110 -13 6 -24 17 -24 25 0 7 -4 13 -9
13 -9 0 -36 -29 -30 -33 2 -1 13 -7 24 -13 30 -16 31 -50 3 -58 -45 -12 -58
-7 -58 19 0 22 -3 25 -24 19 -31 -7 -44 21 -16 36 25 13 26 30 2 30 -10 0 -27
18 -42 47 -14 26 -32 55 -40 63 -9 9 -21 35 -28 59 -20 66 -76 146 -115 165
-35 16 -47 33 -47 64 0 9 -7 35 -16 59 -13 33 -25 46 -60 62 -31 15 -46 29
-50 48 -13 53 -54 105 -95 121 -30 12 -42 22 -46 43 -12 63 -137 130 -288 155
-85 14 -197 18 -208 8z m1007 -3400 c11 -4 14 -13 10 -30 -6 -23 -4 -24 49
-24 l55 0 -8 -27 c-5 -16 -16 -54 -25 -85 -9 -32 -20 -58 -24 -58 -31 0 -80
33 -92 61 -17 44 -18 107 -1 141 15 31 14 30 36 22z m-1290 -1230 c20 -7 22
-79 4 -91 -21 -12 -130 -5 -140 9 -12 20 -9 76 5 81 18 8 113 8 131 1z m1616
-33 c19 -5 26 -14 28 -36 1 -17 -2 -36 -6 -43 -14 -21 -74 -25 -115 -8 -32 13
-37 19 -37 49 0 18 3 37 7 40 8 9 90 7 123 -2z m-1010 -235 c0 -52 -7 -56 -90
-56 -44 0 -59 4 -64 16 -8 21 -8 69 1 77 3 4 39 7 80 7 l73 0 0 -44z"/>
<path d="M8729 3499 c-8 -5 -32 -9 -54 -9 -67 0 -88 -35 -29 -46 33 -6 63 -37
77 -78 4 -12 56 25 57 39 0 6 14 25 30 44 17 19 29 39 27 44 -4 12 -91 17
-108 6z"/>
<path d="M4705 2430 c-4 -7 88 -107 219 -238 206 -207 286 -298 286 -328 0 -6
11 -21 25 -34 34 -32 31 -12 -11 73 -31 62 -61 97 -210 245 -96 94 -174 170
-174 168 0 -2 -29 25 -64 61 -39 39 -67 60 -71 53z"/>
<path d="M159 1752 c-62 -64 -71 -85 -58 -137 9 -36 16 -45 33 -45 13 0 33 11
45 24 21 22 61 26 61 6 0 -5 32 -10 70 -12 70 -3 79 -1 60 18 -5 5 -11 35 -14
67 -4 40 -13 68 -28 87 -20 26 -29 29 -78 29 -50 0 -58 -3 -91 -37z"/>
<path d="M3786 455 c-8 -32 -1 -45 26 -45 30 0 14 -13 -20 -16 -53 -5 -187 -4
-219 2 -18 3 -33 11 -33 18 0 6 -7 19 -14 29 -15 20 -50 12 -42 -9 4 -11 -1
-13 -17 -8 -22 5 -23 2 -24 -47 0 -33 6 -59 15 -70 15 -17 17 -16 51 10 27 22
54 31 111 40 76 10 335 21 597 25 140 1 167 6 146 27 -8 8 -17 8 -32 0 -16 -9
-21 -9 -21 0 0 7 -6 8 -17 3 -10 -4 -115 -10 -233 -13 l-215 -6 -15 39 c-18
48 -35 56 -44 21z"/>
<path d="M4394 263 c-21 -34 -37 -174 -20 -190 4 -4 25 -6 48 -4 l41 2 -6 -36
c-4 -27 -2 -35 10 -35 13 0 15 18 12 130 -2 71 -8 133 -14 138 -26 25 -52 23
-71 -5z"/>
<path d="M3952 260 c-18 -15 -23 -28 -21 -54 2 -19 0 -38 -4 -42 -4 -4 -7 -34
-7 -67 0 -52 2 -58 18 -52 9 3 29 9 45 12 23 5 27 2 27 -16 0 -26 -25 -38 -45
-21 -15 12 -35 6 -35 -11 0 -5 23 -9 50 -9 l50 0 0 93 c0 50 3 101 6 112 3 14
-3 30 -20 48 -30 32 -34 32 -64 7z"/>
<path d="M4166 258 c-12 -20 -33 -130 -28 -151 1 -4 3 -18 4 -31 2 -21 5 -23
36 -14 39 11 59 -1 48 -27 -4 -12 -14 -16 -31 -13 -14 3 -33 -1 -42 -8 -16
-12 -10 -13 40 -14 l57 0 0 114 c0 63 -4 126 -10 140 -12 34 -54 35 -74 4z"/>
<path d="M3522 245 c-27 -28 -43 -122 -35 -199 l6 -46 56 0 56 0 -6 115 c-4
92 -9 118 -24 135 -23 25 -25 25 -53 -5z"/>
<path d="M3733 240 c-7 -10 -10 -32 -7 -48 4 -17 1 -32 -5 -36 -18 -11 -14
-93 5 -100 11 -4 14 -13 10 -31 -6 -23 -4 -25 32 -25 39 0 39 0 46 46 11 84 7
168 -10 192 -19 27 -55 29 -71 2z"/>
</g>
</svg>
